<svg width="24" height="24" viewBox="0 0 24 24" fill="none" xmlns="http://www.w3.org/2000/svg">
<path fill-rule="evenodd" clip-rule="evenodd" d="M9.14905 3.73471C9.21937 3.66439 9.31476 3.62488 9.41421 3.62488H10C10.2071 3.62488 10.375 3.79277 10.375 3.99988V4.71921L10.0369 5.01973C9.62766 5.38351 9.30614 5.83528 9.09648 6.34112L8.97995 6.62228C8.78208 7.09967 9.13294 7.62488 9.6497 7.62488H12.3503C12.8671 7.62488 13.2179 7.09967 13.0201 6.62228L12.9035 6.34112C12.6939 5.83528 12.3723 5.38351 11.9631 5.01973L11.625 4.71921V3.99988C11.625 3.10242 10.8975 2.37488 10 2.37488H9.41421C8.98324 2.37488 8.56991 2.54608 8.26516 2.85083L5.85095 5.26504C5.5462 5.56979 5.375 5.98311 5.375 6.41409V12.3749H3.05C2.6772 12.3749 2.375 12.6771 2.375 13.0499V13.9499C2.375 14.3227 2.6772 14.6249 3.05 14.6249H3.875V16.5648C3.875 17.3242 4.01546 18.0941 4.40338 18.7665C4.79817 19.4507 5.42482 19.9905 6.31327 20.3127L6.34497 20.3242L7.21298 20.5366C7.54643 20.6254 7.94908 20.6251 8.18106 20.6249L8.21053 20.6249H15.7895C15.9503 20.6249 16.1898 20.6045 16.365 20.5877C16.4578 20.5788 16.5421 20.5699 16.6031 20.5633L16.676 20.5552L16.6962 20.5529L16.7039 20.552L16.7425 20.5475L17.655 20.3242L17.6867 20.3127C18.5661 19.9939 19.1957 19.4764 19.5945 18.7959C19.986 18.1278 20.125 17.3544 20.125 16.5647V14.6249H20.95C21.3228 14.6249 21.625 14.3227 21.625 13.9499V13.0499C21.625 12.6772 21.3228 12.3749 20.95 12.3749L6.625 12.3749V6.41409C6.625 6.31463 6.66451 6.21925 6.73483 6.14893L9.14905 3.73471Z" fill="#1C4075"/>
</svg>
