<svg width="103" height="75" viewBox="0 0 103 75" fill="none" xmlns="http://www.w3.org/2000/svg">
<path d="M36.9641 41.3482C37.2361 41.3482 37.5082 41.0761 37.5082 40.8041C37.5082 40.5321 37.2361 40.2601 36.9641 40.2601C36.6921 40.2601 36.42 40.5321 36.42 40.8041C36.42 41.0761 36.6921 41.3482 36.9641 41.3482Z" fill="white"/>
<path d="M60.2236 20.2659H42.133V34.8193C42.133 36.1794 42.677 37.4036 43.4932 37.8116L50.4302 41.892C50.5662 42.028 50.8382 42.164 51.1103 42.164C51.3823 42.164 51.5183 42.028 51.6543 41.892L58.7274 37.6756C59.5435 37.2675 60.0876 36.0434 60.0876 34.6833L60.2236 20.2659ZM48.1178 24.4823H46.6216V20.8099H48.1178V24.4823ZM47.0297 25.7064L47.1657 25.4344L47.0297 25.1623H47.3017L47.4377 24.8903L47.5738 25.1623H47.8458V25.4344L48.1178 25.7064H47.8458V25.9784L47.5738 25.8424L47.3017 25.9784V25.7064H47.0297ZM42.677 30.3309V26.7945H44.5813V30.3309H42.677ZM42.9491 25.2984H43.2211L43.3571 25.0263L43.4932 25.2984H43.7652V25.4344L44.0372 25.7064H43.7652V25.9784L43.4932 25.8424L43.0851 26.1144V25.8424H42.8131L43.0851 25.4344L42.9491 25.2984ZM45.1254 28.8347H45.3974L45.5335 28.5627L45.6695 28.8347H45.9415L45.8055 29.1067L46.0775 29.3788H45.8055V29.6508L45.5335 29.5148L45.2614 29.7868V29.5148H44.9894L45.2614 29.2427L45.1254 28.8347ZM46.3496 25.9784C46.3496 25.8424 46.2136 25.8424 46.2136 25.8424C46.0775 25.8424 45.9415 26.1144 45.8055 26.1144C45.6695 26.1144 45.6695 26.1144 45.6695 25.9784C45.6695 25.8424 45.9415 25.8424 45.9415 25.7064C44.7173 25.7064 44.7173 26.2504 44.5813 26.2504C44.3093 26.2504 44.8534 25.7064 44.9894 25.5704C44.7173 25.5704 44.5813 25.2984 44.3093 25.0263C44.4453 24.8903 44.4453 24.8903 44.7173 25.0263C44.7173 24.8903 44.8534 24.7543 45.1254 24.7543C45.6695 24.7543 45.5335 25.2984 45.5335 25.2984C45.6695 25.2984 45.5335 24.7543 45.9415 24.7543C46.4856 24.7543 47.1657 26.1144 46.4856 26.1144C46.2136 26.2505 46.3496 25.9784 46.3496 25.9784ZM44.9894 22.034L45.2614 21.762L45.1254 21.49H45.3974L45.5335 21.218L45.6695 21.49H45.9415L45.8055 21.762L46.0775 22.034H45.8055V22.3061L45.5335 22.17L45.2614 22.3061V22.034H44.9894ZM44.5813 20.6739V24.3463H42.677V20.6739H44.5813ZM48.1178 39.9878L43.7652 37.4036C43.0851 36.8595 42.677 36.0434 42.541 34.9553V30.8749H47.9818V39.9878H48.1178ZM46.6216 30.3309V26.7945H48.1178V30.3309H46.6216ZM53.6946 40.2598L51.6543 41.484C51.5183 41.62 51.3823 41.62 51.1103 41.62C50.8382 41.62 50.7022 41.484 50.5662 41.484L48.5259 40.2598V30.8749H53.5586V40.2598H53.6946ZM53.6946 30.3309H48.6619V20.6739H53.6946V30.3309ZM59.6795 34.9553C59.5435 36.0434 59.2715 36.8595 58.4553 37.4036L54.1027 39.9878V30.8749H59.5435V34.9553H59.6795ZM59.6795 30.3309H54.2387V20.6739H59.6795V30.3309Z" fill="white"/>
<path d="M47.8457 34.1391C47.8457 34.1391 47.1656 34.4111 47.3016 34.2751C47.3016 34.1391 47.7097 33.7311 47.8457 33.5951C47.8457 33.323 47.5737 33.5951 47.1656 33.7311C48.2538 32.2349 47.5737 32.915 46.8936 32.915C47.8457 31.9629 47.5737 31.9629 46.8936 32.2349C47.4377 31.8269 47.5737 31.2828 47.4377 31.1468C46.8936 31.8269 46.4855 31.6909 46.4855 32.3709C46.4855 32.779 46.3495 33.4591 46.0775 33.7311C45.8054 34.0031 46.0775 32.643 45.2613 32.643C44.9893 32.643 44.4452 32.643 44.3092 32.915C44.4452 32.915 44.7173 33.323 44.7173 33.4591C44.7173 33.5951 44.8533 34.0031 44.5812 34.0031C44.3092 34.0031 44.0372 33.4591 44.0372 33.187C44.0372 32.915 44.0372 33.051 44.0372 32.643C44.0372 32.0989 43.085 31.2828 42.677 31.2828C42.677 31.6909 43.221 31.8269 43.221 32.3709C42.949 32.3709 42.677 31.9629 42.677 32.2349C42.677 32.507 42.949 32.507 42.949 32.779C42.949 33.051 42.5409 32.643 42.5409 32.915C42.5409 33.187 42.813 33.051 42.813 33.323C42.677 33.323 42.5409 33.323 42.5409 33.323C42.5409 33.4591 42.5409 33.4591 42.677 33.5951C42.677 33.5951 42.5409 33.7311 42.5409 34.1391C42.5409 35.2272 43.221 35.7713 43.7651 35.7713C44.1732 35.7713 44.0372 35.4993 44.1732 35.3632C44.1732 35.4993 44.3092 35.2272 44.3092 35.6353C44.3092 36.0433 43.9011 35.7713 43.9011 36.1793C43.9011 36.5874 44.4452 36.1793 44.4452 36.5874C44.4452 37.1314 44.3092 37.1314 44.3092 37.4034C44.3092 37.5395 44.8533 37.2674 44.8533 37.1314C44.9893 37.1314 44.9893 37.6755 45.2613 37.5395C45.3974 37.5395 45.5334 37.1314 45.6694 36.9954C45.5334 36.9954 46.2135 37.4034 46.2135 37.2674C46.2135 36.7234 45.9414 36.9954 45.9414 36.5874C45.9414 36.3153 46.6215 36.3153 46.6215 36.1793C46.4855 36.0433 46.4855 36.1793 46.3495 35.9073C46.3495 35.9073 45.8054 35.0912 46.4855 35.4993C47.8457 35.9073 47.8457 34.2751 47.8457 34.1391Z" fill="white"/>
<path d="M67.0245 37.9476C67.2965 37.9476 67.5686 37.6755 67.5686 37.4035C67.5686 37.1315 67.2965 36.8595 67.0245 36.8595C66.7524 36.8595 66.4804 37.1315 66.4804 37.4035C66.4804 37.6755 66.7524 37.9476 67.0245 37.9476Z" fill="white"/>
<path d="M64.7121 39.4441C64.9842 39.4441 65.2562 39.1721 65.2562 38.9001C65.2562 38.628 64.9842 38.356 64.7121 38.356C64.4401 38.356 64.168 38.628 64.168 38.9001C64.032 39.1721 64.3041 39.4441 64.7121 39.4441Z" fill="white"/>
<path d="M36.148 42.7084C36.4201 42.7084 36.6921 42.4364 36.6921 42.1644C36.6921 41.8923 36.4201 41.6203 36.148 41.6203C35.876 41.6203 35.604 41.8923 35.604 42.1644C35.604 42.4364 35.876 42.7084 36.148 42.7084Z" fill="white"/>
<path d="M38.0524 42.8442C38.3244 42.8442 38.5965 42.5722 38.5965 42.3002C38.5965 42.0282 38.3244 41.7561 38.0524 41.7561C37.7804 41.7561 37.5083 42.0282 37.5083 42.3002C37.3723 42.5722 37.6443 42.8442 38.0524 42.8442Z" fill="white"/>
<path d="M89.3318 17.9538C90.1479 19.0419 90.42 20.6741 89.7399 21.8982C89.3318 21.8982 89.4678 21.4901 89.3318 21.2181C88.6517 19.994 88.2437 18.4978 88.7877 17.2737C89.1958 17.2737 89.0598 17.8178 89.3318 17.9538Z" fill="white"/>
<path d="M14.1128 19.4499C13.9768 20.266 13.9768 21.2181 14.1128 21.8981C13.9768 22.0341 13.9768 21.7621 13.8408 21.7621C12.6166 20.81 13.1607 19.1779 12.8887 17.9537C12.8887 17.8177 13.1607 17.8177 13.1607 17.9537C13.7048 18.2258 13.9768 18.7698 14.1128 19.4499Z" fill="white"/>
<path d="M92.0521 19.5858C92.1881 19.9938 91.9161 20.2659 91.6441 20.4019C91.372 20.4019 91.1 20.2659 90.8279 19.9938C90.6919 19.5858 90.964 19.3138 91.236 19.1778C91.508 19.1778 91.7801 19.1778 92.0521 19.5858Z" fill="white"/>
<path d="M12.0726 20.946C12.0726 21.2181 11.9365 21.4901 11.6645 21.6261C11.5285 21.6261 11.2564 21.6261 11.1204 21.4901C10.9844 21.3541 10.8484 21.0821 10.9844 20.81C11.1204 20.538 11.3925 20.538 11.5285 20.538C11.8005 20.538 12.0726 20.674 12.0726 20.946Z" fill="white"/>
<path d="M93.2763 21.4901C93.2763 21.6261 93.2763 21.7621 93.2763 22.0341C93.0043 22.3062 92.7322 22.4422 92.4602 22.3062C92.1882 22.1702 92.1882 21.8981 92.0521 21.7621C92.0521 21.4901 92.3242 21.3541 92.5962 21.2181C92.8683 21.0821 93.0043 21.3541 93.2763 21.4901Z" fill="white"/>
<path d="M91.5081 21.4901C91.7802 21.6261 91.5081 21.8982 91.5081 22.1702C91.3721 22.3062 91.1001 22.5782 90.828 22.4422C90.692 22.3062 90.42 22.3062 90.42 22.0342C90.42 21.7621 90.556 21.3541 90.828 21.3541C91.1001 21.2181 91.2361 21.3541 91.5081 21.4901Z" fill="white"/>
<path d="M89.1958 21.8983C89.1958 22.3064 89.1958 22.7144 88.7878 22.7144C88.3797 22.8504 88.1077 22.5784 88.1077 22.3064C88.1077 22.0343 88.2437 21.6263 88.5157 21.4903C88.7878 21.6263 89.0598 21.7623 89.1958 21.8983Z" fill="white"/>
<path d="M15.6091 22.1703C15.7451 22.4424 15.337 22.7144 15.201 22.8504C14.929 22.8504 14.6569 22.7144 14.5209 22.4424C14.2489 22.1703 14.5209 22.0343 14.6569 21.8983C14.929 21.4903 15.4731 21.7623 15.6091 22.1703Z" fill="white"/>
<path d="M13.7047 22.1705C13.7047 22.4425 13.5687 22.7145 13.2967 22.7145C13.0246 22.8505 12.7526 22.5785 12.6166 22.4425C12.4805 22.1705 12.6166 21.8984 12.8886 21.7624C13.2966 21.6264 13.5687 22.0345 13.7047 22.1705Z" fill="white"/>
<path d="M81.5787 22.3063C81.8508 22.9864 82.1228 23.8024 82.2588 24.6185C82.1228 25.1626 82.3948 25.9787 81.8508 26.3867C81.4427 26.2507 81.4427 25.7066 81.0346 25.4346C80.4906 24.3465 81.0346 22.9864 81.1707 21.8982C81.4427 21.8982 81.4427 22.1703 81.5787 22.3063Z" fill="white"/>
<path d="M12.2086 22.7143C12.3446 23.1223 12.0726 23.2583 11.8005 23.5303C11.3925 23.6664 11.1204 23.3943 10.9844 23.1223C10.9844 22.8503 11.1204 22.4422 11.3925 22.3062C11.6645 22.3062 12.0726 22.4422 12.2086 22.7143Z" fill="white"/>
<path d="M86.4753 23.6663C86.8834 24.6184 86.8834 25.7065 86.6113 26.6586L86.4753 26.7946C86.0672 25.9785 85.3871 25.1624 85.2511 24.2103C85.2511 23.5303 85.3871 22.9862 85.6592 22.4422C85.9312 22.3061 86.0672 22.4422 86.0672 22.7142C86.0672 22.9862 86.2033 23.3943 86.4753 23.6663Z" fill="white"/>
<path d="M90.4199 23.122C90.4199 23.3941 90.2839 23.8021 90.0118 23.9381C89.7398 23.9381 89.3317 23.9381 89.3317 23.5301C89.1957 23.2581 89.4678 22.986 89.7398 22.714C90.0118 22.442 90.2839 22.85 90.4199 23.122Z" fill="white"/>
<path d="M13.7047 24.0744C13.7047 24.3464 13.4327 24.6184 13.2967 24.6184C13.0247 24.7545 12.8886 24.4824 12.6166 24.3464C12.4806 24.0744 12.4806 23.9384 12.6166 23.6663C12.7526 23.5303 12.8886 23.5303 13.1607 23.3943C13.2967 23.6663 13.7047 23.6663 13.7047 24.0744Z" fill="white"/>
<path d="M15.065 23.9387C15.201 24.2107 14.7929 24.4828 14.6569 24.6188C14.2489 24.7548 14.1128 24.4828 13.9768 24.2107C13.9768 23.9387 14.1128 23.6667 14.3849 23.5307C14.7929 23.3946 14.929 23.6667 15.065 23.9387Z" fill="white"/>
<path d="M91.3721 23.8023C91.3721 24.2103 90.692 24.6184 90.692 25.0264C90.284 25.8425 89.6039 26.5226 88.7878 26.7946C88.6517 26.9306 88.3797 27.2026 88.1077 27.2026C88.1077 26.5226 88.6517 25.9785 88.9238 25.4345C89.4679 24.6184 90.42 24.0743 91.3721 23.8023Z" fill="white"/>
<path d="M13.0247 25.1626C13.4328 25.7067 13.7048 26.1147 14.2489 26.6587C14.2489 26.7948 14.2489 26.9308 13.9769 26.9308C12.4807 26.7948 11.3925 25.2986 10.5764 24.2105C10.7124 23.8025 11.1205 24.2105 11.2565 24.0745C12.0726 24.4825 12.6167 24.6185 13.0247 25.1626Z" fill="white"/>
<path d="M91.7802 25.5705C91.7802 26.9306 91.1001 28.2908 89.876 28.9709C89.4679 29.1069 89.1958 29.3789 88.7878 29.2429C89.4679 27.8827 90.42 26.7946 91.5082 25.5705H91.7802Z" fill="white"/>
<path d="M85.7952 26.5228C85.9312 26.9309 85.6592 27.3389 85.2511 27.4749C84.8431 27.4749 84.7071 27.2029 84.571 26.9309C84.571 26.6589 84.7071 26.3868 84.9791 26.2508C85.1151 26.1148 85.2511 26.1148 85.3872 26.1148C85.5232 26.1148 85.6592 26.3868 85.7952 26.5228Z" fill="white"/>
<path d="M11.3925 26.7945C11.9366 27.2026 12.4807 27.7466 13.0248 28.2907C12.6167 28.5627 12.0726 28.2907 11.6646 28.2907C10.5764 27.8826 9.89633 26.9305 8.80817 26.6585C8.80817 26.2505 9.21623 26.3865 9.48827 26.3865C10.1684 26.2505 10.7125 26.6585 11.3925 26.7945Z" fill="white"/>
<path d="M44.9894 17.4099C43.2212 16.7298 41.997 18.498 40.2287 18.362C39.9567 18.498 40.0927 18.77 39.9567 18.9061C39.8207 19.0421 39.6847 18.9061 39.5486 18.9061C39.4126 18.09 39.1406 17.4099 39.1406 16.7298C39.0046 16.3218 39.1406 15.9138 39.0046 15.5057C38.0524 12.7854 41.4529 14.8256 42.133 13.1935C42.6771 11.8334 40.9088 11.6973 40.5008 10.6092V10.2012C39.9567 9.65714 39.4126 9.52112 39.1406 8.84106C39.4126 8.02498 39.4126 7.2089 39.2766 6.39281C39.2766 6.2568 39.1406 5.98478 38.8685 5.98478C38.3245 6.80086 37.7804 7.48092 37.2363 8.297C36.6922 7.88896 36.0121 7.34491 35.332 6.93687C34.924 6.93687 34.3799 6.39282 33.8358 6.52883C33.6998 6.66484 33.8358 6.93687 33.9718 6.93687C33.9718 8.16099 34.6519 9.11308 35.468 10.0652L35.6041 10.6092C35.06 11.9694 35.196 13.3295 35.06 14.8256C33.6998 18.498 31.3874 21.8983 28.259 24.4826C26.4907 26.5228 24.3144 28.427 24.0424 31.2833C23.9064 31.6913 24.0424 32.2354 23.7703 32.6434C22.6822 32.2354 21.73 31.6913 20.9139 31.1473C19.4177 30.1952 17.3774 30.1952 16.4253 28.427C16.0172 27.7469 16.5613 26.9308 16.8333 26.3868C17.9215 25.4347 17.7855 23.5305 17.2414 22.3064C17.1054 22.3064 17.1054 22.4424 16.9693 22.4424C16.8333 24.3466 15.3371 25.5707 16.0172 27.6109C16.1532 28.155 16.4253 28.563 16.5613 29.1071C16.2892 29.1071 16.0172 29.1071 15.8812 28.971C15.2011 28.835 14.521 28.563 13.8409 28.699C12.3447 29.3791 10.4404 28.563 9.21621 29.9231C9.08019 29.9231 8.80815 29.9231 8.80815 30.3312C9.48825 30.3312 10.1683 30.4672 10.8484 30.4672C11.9366 30.6032 12.6167 29.7871 13.4328 29.3791H13.5688C13.8409 29.1071 14.385 29.2431 14.793 29.2431C16.8333 29.5151 18.3295 30.4672 19.9618 31.4193V31.5553C19.2817 31.8273 18.6016 32.0994 17.9215 32.3714C17.2414 32.9154 16.4253 33.5955 16.1532 34.5476C15.6091 35.3637 16.2892 36.0437 16.5613 36.7238C16.5613 36.9958 16.5613 37.4039 16.9693 37.5399C17.9215 36.4518 16.9693 35.0917 17.2414 33.8675C17.5134 32.9154 18.3295 32.5074 19.2817 32.2354C21.0499 31.4193 22.4101 32.9154 23.7703 33.7315C23.7703 35.2277 23.9064 36.5878 23.6343 37.9479C23.2263 38.084 22.6822 38.22 22.1381 38.22C19.6897 38.356 17.6494 39.7161 15.4731 40.5322C14.521 40.9402 13.2968 40.8042 12.2086 41.2123C13.0248 41.4843 13.8409 41.2123 14.657 41.0762C17.7855 40.6682 20.0978 38.22 23.3623 38.628V38.764C22.9542 39.5801 22.5462 40.2602 21.8661 40.8042C21.73 40.3962 21.73 40.1242 21.458 39.9881C21.186 39.8521 20.9139 39.9881 20.7779 40.2602C20.6419 40.3962 20.6419 40.6682 20.7779 40.8042C20.9139 41.0762 21.186 41.2123 21.458 41.2123C21.458 41.4843 21.0499 41.6203 20.9139 41.8923C20.0978 43.3885 18.1935 42.8444 17.2414 43.7965C17.1054 44.0685 16.5613 44.2046 16.8333 44.4766C18.0575 44.6126 19.1457 44.3406 20.0978 43.6605C21.322 42.3004 22.5462 41.0762 23.6343 39.8521C23.7703 40.8042 23.4983 41.8923 22.9542 42.7084C22.6822 42.5724 22.4101 42.3004 22.1381 42.3004C21.8661 42.3004 21.594 42.7084 21.594 42.9804C21.73 43.2525 21.8661 43.3885 22.0021 43.6605C20.9139 44.4766 19.5537 44.4766 18.3295 44.8846C16.0172 45.1566 13.8409 45.2927 11.5285 45.4287C10.4404 45.4287 9.21621 45.7007 8.12805 45.4287C6.90387 45.7007 5.67969 45.2927 4.72755 45.9727C4.59153 46.1087 4.72755 46.2448 4.72755 46.3808C6.22377 47.3329 8.12805 46.5168 9.76029 46.9248H22.1381C23.0902 46.9248 23.9064 46.9248 24.7225 46.3808C26.3547 45.4287 27.1708 43.7965 27.987 42.1644C28.259 41.6203 28.531 40.9402 28.6671 40.2602C28.9391 39.1721 29.8912 38.492 30.9794 38.356C31.1154 39.9881 30.8434 41.6203 30.4353 43.1164C30.2993 44.0685 29.6192 45.1566 30.0272 46.2448C30.1633 46.7888 30.7073 46.7888 31.1154 46.7888C34.924 46.7888 38.7325 46.5168 42.8131 46.7888C43.4932 46.9248 44.1733 47.1969 44.9894 47.0608C44.9894 46.9248 45.2615 46.9248 45.1254 46.7888C44.9894 46.3808 44.7174 45.9727 44.3093 45.8367C44.3093 45.7007 43.9013 45.7007 43.9013 45.5647C41.861 44.4766 39.4126 45.0206 37.1003 45.0206C35.8761 45.1567 34.6519 45.4287 33.5638 44.6126C33.1557 44.0685 33.4277 42.3004 33.4277 42.3004C33.4277 41.6203 35.196 36.5878 35.332 36.1798C35.332 35.7717 35.6041 35.2277 35.468 34.6836C35.7401 34.0035 35.6041 33.1875 35.6041 32.5074C35.7401 31.5553 36.2842 30.6032 36.5562 29.5151C36.6922 29.1071 36.9643 28.563 37.1003 28.019C37.2363 27.4749 37.3723 26.7948 37.7804 26.3868C38.8685 27.0669 39.8207 27.0669 40.3648 28.155L40.7728 30.7392C40.7728 30.8752 40.9088 31.1473 41.1809 31.0112C41.997 30.4672 41.725 29.2431 41.725 28.427C41.861 27.4749 41.1809 26.9308 40.9088 26.1148C40.6368 25.9788 40.3648 25.1627 40.3648 25.1627C40.2287 24.4826 38.7325 23.9386 39.0046 23.1225C39.1406 22.4424 39.4126 21.7623 40.0927 21.3543C40.2287 21.4903 40.2287 21.4903 40.2287 21.6263L40.6368 21.3543V18.77C41.5889 18.77 43.2212 18.9061 44.1733 18.9061C44.4453 19.0421 44.7174 19.1781 44.9894 19.3141L45.2615 18.9061L47.8458 18.362C46.7577 18.634 46.0776 17.4099 44.9894 17.4099Z" fill="white"/>
<path d="M20.3698 27.3388C20.3698 27.7468 20.2337 27.8829 19.9617 28.0189C19.6897 27.8829 19.5536 27.8828 19.4176 27.6108C19.2816 27.2028 19.5536 27.0668 19.8257 26.9308C19.9617 27.0668 20.3698 27.0668 20.3698 27.3388Z" fill="white"/>
<path d="M18.3296 27.3388C18.4656 27.4749 18.6016 27.8829 18.4656 28.0189C18.1935 28.1549 17.9215 28.4269 17.6495 28.1549C17.5134 28.0189 17.2414 27.7469 17.3774 27.4749C17.7855 27.3388 18.0575 27.0668 18.3296 27.3388Z" fill="white"/>
<path d="M86.0672 28.291C86.2033 28.699 85.9312 28.835 85.6592 28.971C85.3871 28.835 84.9791 28.835 84.9791 28.427C84.9791 28.155 85.2511 28.019 85.3871 28.019C85.6592 27.8829 85.9312 28.019 86.0672 28.291Z" fill="white"/>
<path d="M87.6997 28.1551C87.8357 28.2911 87.9717 28.5631 87.6997 28.6991C87.5637 28.8351 87.4276 28.8351 87.4276 28.9711C87.0196 28.9711 86.7476 28.9711 86.6115 28.5631C86.6115 28.1551 86.8836 28.019 87.0196 27.883C87.4277 27.883 87.5637 28.019 87.6997 28.1551Z" fill="white"/>
<path d="M10.4404 28.5629C10.3044 28.9709 10.0324 29.107 9.62432 28.9709C9.4883 28.8349 9.4883 28.6989 9.35228 28.5629C9.35228 28.2909 9.4883 28.1549 9.76034 28.0189C10.0324 28.0189 10.3044 28.1549 10.4404 28.5629Z" fill="white"/>
<path d="M21.0499 29.1069C21.0499 29.3789 20.7779 29.515 20.5059 29.651C20.2338 29.651 19.9618 29.3789 19.8258 29.2429C19.8258 28.9709 19.9618 28.6989 20.2338 28.5629C20.5059 28.4268 20.9139 28.6989 21.0499 29.1069Z" fill="white"/>
<path d="M19.1455 28.8346C19.2815 28.9707 19.2815 29.2427 19.2815 29.3787C19.1455 29.5147 18.8734 29.7867 18.4654 29.6507C18.3293 29.5147 18.0573 29.3787 18.0573 29.1067C18.1933 28.9707 18.3293 28.8347 18.4654 28.6986C18.8734 28.5626 19.0094 28.6986 19.1455 28.8346Z" fill="white"/>
<path d="M92.5963 29.2428C92.5963 29.5149 92.3242 29.7869 92.1882 29.7869C91.9162 29.9229 91.6441 29.7869 91.5081 29.6509C91.3721 29.6509 91.3721 29.3789 91.3721 29.2428C91.5081 28.9708 91.7801 28.8348 91.9162 28.8348C92.1882 28.8348 92.3242 29.1068 92.5963 29.2428Z" fill="white"/>
<path d="M94.5006 29.515C94.3646 29.787 94.2286 30.059 93.9565 30.059C93.8205 30.059 93.4125 29.923 93.5485 29.651C93.5485 29.379 93.6845 29.243 93.8205 29.1069C94.0926 29.1069 94.5006 29.243 94.5006 29.515Z" fill="white"/>
<path d="M14.1128 29.923C14.1128 30.331 14.1128 30.603 13.7047 30.739C13.4327 30.8751 13.2967 30.739 13.1607 30.603C13.0246 30.467 12.8886 30.195 13.0246 29.923C13.0246 29.6509 13.4327 29.6509 13.5687 29.5149C13.7047 29.6509 13.8408 29.787 14.1128 29.923Z" fill="white"/>
<path d="M15.6091 30.1947C15.7451 30.4668 15.4731 30.6028 15.3371 30.7388C15.2011 30.8748 14.929 30.8748 14.793 30.7388C14.521 30.6028 14.3849 30.3308 14.521 29.9227C14.793 29.6507 15.4731 29.9227 15.6091 30.1947Z" fill="white"/>
<path d="M90.692 30.0591C90.692 30.3311 90.42 30.6032 90.284 30.7392C90.0119 30.7392 89.7399 30.6031 89.6039 30.3311C89.6039 30.0591 89.7399 29.9231 90.0119 29.7871C90.284 29.7871 90.556 29.7871 90.692 30.0591Z" fill="white"/>
<path d="M93.2763 30.6031C93.2763 30.8751 93.2763 31.1471 92.8682 31.4192C92.5962 31.4192 92.3242 31.4192 92.0521 31.2832C91.9161 31.1471 91.7801 30.8751 91.9161 30.6031C92.0521 30.3311 92.3242 30.195 92.7322 30.195C93.0042 30.3311 93.1403 30.4671 93.2763 30.6031Z" fill="white"/>
<path d="M12.8888 31.2831C13.0248 31.5551 12.7527 31.5551 12.6167 31.6911C12.3447 31.8271 12.2087 31.6911 11.9366 31.6911C11.6646 31.5551 11.8006 31.2831 11.8006 31.147C12.2087 30.467 12.7527 30.875 12.8888 31.2831Z" fill="white"/>
<path d="M91.2362 31.8273C91.3722 31.8273 91.2362 32.0993 91.2362 32.0993C90.42 32.5073 89.3319 32.5073 88.6518 31.9633C88.2437 31.6912 87.8357 31.5552 87.4276 31.2832C87.5636 30.8752 88.1077 30.8752 88.5158 30.8752C89.6039 31.0112 90.284 31.8273 91.2362 31.8273Z" fill="white"/>
<path d="M14.3848 31.5555C14.3848 31.8275 14.2488 31.9635 14.2488 32.0995C14.1128 32.2355 13.8407 32.2355 13.7047 32.0995C13.4327 31.9635 13.2967 31.5555 13.4327 31.2834C13.7047 31.0114 14.1128 31.2834 14.3848 31.5555Z" fill="white"/>
<path d="M17.1053 31.8269C17.2413 32.0989 17.1053 32.371 16.8332 32.507C16.5612 32.643 16.4252 32.507 16.2891 32.371C16.1531 32.0989 15.8811 31.9629 16.1531 31.6909C16.2891 31.1469 16.9692 31.4189 17.1053 31.8269Z" fill="white"/>
<path d="M53.4226 33.0515C53.4226 33.7315 52.3345 32.9154 52.4705 33.8675C52.6065 34.4116 52.7426 35.2277 53.1506 35.6357C53.4226 36.0438 53.2866 36.7238 53.2866 37.2679C53.0146 37.6759 52.6065 38.084 52.0624 38.356C51.1103 38.22 49.8861 38.764 49.4781 37.6759C49.3421 37.1319 48.934 36.7238 48.934 36.1798C49.07 36.1798 49.206 36.1798 49.206 36.0438C49.206 35.7717 48.934 35.7717 48.934 35.4997C49.8861 35.3637 48.5259 34.4116 49.3421 34.4116C50.0221 35.2277 51.2463 34.9556 51.7904 35.7717C51.9264 35.9077 52.0625 36.0438 52.1985 36.1798C52.0625 35.3637 51.6544 34.6836 51.6544 33.8675C51.5184 33.4595 51.6544 33.0515 52.0624 32.7794C52.7425 32.2354 53.1506 32.7794 53.4226 33.0515Z" fill="white"/>
<path d="M19.9618 32.9151C20.0978 33.1871 19.8257 33.4592 19.5537 33.5952C19.2817 33.7312 19.1456 33.4592 19.0096 33.1871C18.8736 32.9151 19.1456 32.7791 19.2817 32.5071C19.5537 32.6431 19.8257 32.6431 19.9618 32.9151Z" fill="white"/>
<path d="M39.2765 33.1874C39.6846 34.4115 39.5485 35.6357 38.8684 36.7238C38.8684 36.9958 38.8684 37.4038 38.5964 37.4038C37.7803 36.1797 38.3244 34.5476 38.7324 33.3234C38.8684 33.0514 39.1405 32.9154 39.2765 33.1874Z" fill="white"/>
<path d="M22.4102 34.1392C22.2741 34.5473 21.7301 34.5473 21.322 34.8193C20.5059 35.3633 19.4177 35.4994 18.4656 35.3633C19.2817 34.2752 20.5059 33.5952 22.0021 33.8672C22.1381 34.1392 22.2741 34.0032 22.4102 34.1392Z" fill="white"/>
<path d="M66.2084 33.8672C66.6164 34.8193 66.6164 35.9074 66.2084 36.8595L65.9363 37.1316C65.5283 36.4515 65.2562 35.6354 65.2562 34.8193C65.3923 34.2753 65.6643 33.7312 65.6643 33.1872C66.0723 33.0511 66.0723 33.5952 66.2084 33.8672Z" fill="white"/>
<path d="M9.48824 35.3634C10.7124 36.1795 10.9845 37.2676 11.6646 38.4917C11.8006 38.6277 12.0726 38.6277 11.9366 38.8997C11.6646 39.0357 11.3925 38.7637 11.1205 38.7637C9.89631 38.2197 9.21621 36.8595 9.21621 35.4994C9.08019 35.3634 9.35222 35.3634 9.48824 35.3634Z" fill="white"/>
<path d="M64.9844 36.3156C64.9844 36.5877 64.9844 36.9957 64.7123 36.9957C64.3043 37.1317 64.0322 36.8597 64.0322 36.5877C63.8962 36.3156 64.1682 36.1796 64.1682 36.0436C64.4403 35.9076 64.8483 36.0436 64.9844 36.3156Z" fill="white"/>
<path d="M78.1782 37.9479C78.1782 37.4039 78.3142 36.7238 78.4502 36.1797C78.5862 36.0437 78.5862 35.7717 78.5862 35.4997C79.4024 34.5476 80.8986 34.8196 82.1227 34.9556C82.5308 35.2276 83.2109 35.2276 83.755 35.3637C84.027 35.2276 84.2991 35.2276 84.5711 35.2276C85.5232 34.6836 84.9792 33.4595 84.9792 32.6434L84.5711 31.6913C84.4351 31.5553 84.4351 31.2833 84.2991 31.0112C84.1631 30.7392 84.027 30.3312 83.755 30.1952C83.2109 28.835 82.1228 28.0189 81.3066 26.9308C79.6744 24.8906 77.226 23.6665 74.6417 22.8504C72.1933 22.0343 69.6089 23.1225 67.4326 23.9385C66.7525 23.8025 66.3445 23.2585 66.2084 22.5784C66.0724 21.3543 66.3445 20.2662 66.7525 19.1781C66.8885 18.362 67.4326 17.8179 67.5686 17.0018C68.1127 15.2337 68.7928 13.4655 68.7928 11.5613C68.7928 10.3372 67.9767 9.52111 67.1606 9.11307C66.6165 8.97705 65.9364 8.97705 65.3923 9.52111C64.9843 10.3372 64.1681 10.8812 63.352 11.2893C63.352 11.8333 63.8961 11.4253 64.1681 11.6973C64.8482 11.8333 65.6644 11.5613 66.2084 12.1054C66.2084 13.3295 65.5283 14.4176 64.8482 15.3697C63.7601 17.0018 62.6719 18.634 61.9918 20.2662V19.9941L62.1278 27.7469C63.08 29.3791 64.4402 31.2833 66.2084 31.9633C67.1606 32.7794 68.5208 33.7315 69.881 33.0514C70.5611 32.7794 70.6971 33.8675 70.9691 34.2756C71.3772 35.4997 70.5611 36.3158 70.425 37.4039L69.6089 39.036C68.6568 40.8042 67.8407 42.8444 66.3444 44.3405C65.9364 44.3405 65.5283 44.8846 65.1203 44.8846C64.8482 45.2926 64.3042 45.0206 64.0321 45.1566C63.08 45.5647 61.7198 45.2926 61.0397 46.2447C61.0397 46.3808 61.1757 46.3808 61.3117 46.3808C63.216 46.3808 65.3923 46.5168 67.4326 46.3808C67.7047 46.2447 67.8407 46.1087 67.9767 45.8367C67.7047 45.2926 68.1127 44.8846 68.3847 44.4766C68.5208 43.6605 69.0648 43.2524 69.2009 42.5724C69.881 41.2122 70.5611 39.9881 71.3772 38.764L72.3293 37.1318C72.6014 36.5878 72.8734 35.9077 73.2815 35.3637C73.5535 35.0916 73.6895 34.8196 73.8255 34.5476C73.8255 34.2756 73.6895 34.1395 73.5535 33.8675C73.8255 33.5955 74.0976 33.7315 74.3696 33.5955C75.1857 34.0035 76.0019 34.8196 76.1379 35.6357L76.4099 36.4518L76.5459 36.8598V37.9479L76.682 38.9C76.818 40.3962 76.5459 42.0283 76.4099 43.5245C75.8658 45.2926 73.8255 45.1566 72.1933 45.5647C71.7852 45.8367 71.1051 45.7007 71.1051 46.3808C72.8734 46.7888 75.0497 46.5168 76.954 46.5168C77.226 46.3808 77.3621 46.1087 77.4981 45.8367C77.4981 45.4287 77.9061 45.0206 77.9061 44.6126C77.4981 44.2045 77.9061 43.5245 77.7701 42.8444C77.7701 42.7084 77.7701 42.4364 77.7701 42.3003C78.0422 41.3483 77.9061 40.2601 78.1782 39.4441V37.9479Z" fill="white"/>
<path d="M93.6845 36.7238C92.7323 38.0839 91.6442 39.7161 89.8759 40.2601C89.7399 40.2601 89.6039 40.2601 89.6039 40.1241C90.692 39.036 91.2361 37.2678 92.8683 36.8598C93.1404 36.7238 93.4124 36.5878 93.6845 36.7238Z" fill="white"/>
<path d="M7.85598 38.3558C7.71996 38.4918 7.85598 38.7638 7.58394 38.7638C7.3119 38.8998 7.03986 38.7638 6.90384 38.4918C6.76782 38.2198 7.03986 37.8117 7.3119 37.8117C7.58394 37.9477 7.85598 37.9477 7.85598 38.3558Z" fill="white"/>
<path d="M16.9692 38.7641C17.1053 39.0361 16.6972 39.0361 16.5612 39.1722C15.201 39.5802 13.8408 39.1722 12.8887 38.2201C12.8887 38.0841 12.8887 37.948 13.0247 37.948C14.3849 38.2201 15.8811 37.948 16.9692 38.7641Z" fill="white"/>
<path d="M9.62407 38.3559C9.62407 38.4919 9.76009 38.7639 9.62407 38.7639C9.48805 39.036 9.21601 39.172 8.80795 39.036C8.67193 38.8999 8.53591 38.7639 8.39989 38.6279C8.39989 38.3559 8.67193 38.0839 8.94397 38.0839C9.21601 38.0839 9.48805 38.2199 9.62407 38.3559Z" fill="white"/>
<path d="M39.0045 38.4917C39.0045 38.7637 38.8685 38.8998 38.5964 39.0358C38.3244 39.0358 38.0523 39.0358 37.9163 38.7637C37.7803 38.4917 37.9163 38.2197 38.1884 38.2197C38.5964 38.2197 39.0045 38.2197 39.0045 38.4917Z" fill="white"/>
<path d="M94.9087 38.6277C95.0447 38.8998 94.7727 39.0358 94.5006 39.3078C94.3646 39.4438 94.0926 39.3078 93.9565 39.1718C93.9565 39.0358 93.6845 38.8998 93.8205 38.6277C93.9565 38.3557 94.2286 38.2197 94.5006 38.2197C94.6366 38.4917 94.7727 38.4917 94.9087 38.6277Z" fill="white"/>
<path d="M74.9137 39.852C74.9137 40.124 74.9137 40.532 74.5056 40.668C74.0975 40.8041 73.8255 40.532 73.6895 40.26C73.8255 39.988 73.8255 39.716 74.2336 39.5799C74.5056 39.5799 74.6416 39.7159 74.9137 39.852Z" fill="white"/>
<path d="M8.67198 39.988C8.808 40.26 8.53596 40.532 8.39994 40.6681C7.99188 40.8041 7.71984 40.532 7.58382 40.26C7.58382 39.988 7.85586 39.58 8.1279 39.58C8.26392 39.4439 8.39994 39.852 8.67198 39.988Z" fill="white"/>
<path d="M11.6645 39.852C11.6645 40.1241 11.5285 40.2601 11.2565 40.3961C10.9844 40.3961 10.8484 40.1241 10.7124 39.9881C10.7124 39.716 10.7124 39.444 10.9844 39.308C11.2565 39.172 11.6645 39.444 11.6645 39.852Z" fill="white"/>
<path d="M93.1403 40.2599C93.0043 40.5319 92.8683 40.668 92.5962 40.804C92.3242 40.804 92.1882 40.668 92.0522 40.5319C91.9161 40.3959 91.9161 40.1239 92.0522 39.9879C92.3242 39.4438 93.1403 39.7159 93.1403 40.2599Z" fill="white"/>
<path d="M10.0323 39.988C10.1684 40.26 9.89632 40.26 9.89632 40.396C9.7603 40.396 9.62427 40.532 9.48825 40.532C9.35223 40.396 9.0802 40.396 9.0802 40.124C9.0802 39.852 9.21621 39.716 9.48825 39.5799C9.76029 39.5799 10.0323 39.716 10.0323 39.988Z" fill="white"/>
<path d="M72.7373 39.4437C72.7373 39.5797 72.7373 39.7157 72.7373 39.8517C72.6013 40.1237 72.3293 40.2597 71.9212 40.1237C71.7852 39.9877 71.5131 39.7157 71.6492 39.4437C71.9212 39.1716 72.4653 39.0356 72.7373 39.4437Z" fill="white"/>
<path d="M80.6266 40.6681C80.7626 41.0761 80.3545 41.2122 80.2185 41.3482C79.9465 41.3482 79.8105 41.2122 79.6744 41.0761C79.6744 40.6681 79.8104 40.3961 80.0825 40.2601C80.3545 40.2601 80.4905 40.3961 80.6266 40.6681Z" fill="white"/>
<path d="M71.9212 40.9402C72.0572 40.9402 72.0572 41.2122 71.9212 41.3482C71.7851 41.4842 71.5131 41.7563 71.2411 41.6203C70.969 41.4842 70.833 41.3482 70.969 41.0762C71.105 40.6682 71.7851 40.6682 71.9212 40.9402Z" fill="white"/>
<path d="M73.6896 41.2122C73.6896 41.4842 73.6896 41.6203 73.4175 41.7563C73.1455 42.0283 73.0095 41.7563 72.7374 41.6203C72.7374 41.4842 72.6014 41.3482 72.7374 41.2122C72.8735 41.0762 73.0095 40.9402 73.1455 40.9402C73.4175 40.9402 73.6896 40.9402 73.6896 41.2122Z" fill="white"/>
<path d="M84.027 41.3483C84.027 41.6204 83.755 41.7564 83.6189 41.8924C83.2109 42.0284 83.0749 41.7564 82.9388 41.4844C82.9388 41.3483 83.0749 41.2123 83.2109 41.0763C83.4829 40.8043 83.755 41.0763 84.027 41.3483Z" fill="white"/>
<path d="M82.2587 41.3482C82.3948 41.6203 81.9867 41.7563 81.8507 42.0283C81.5786 42.1643 81.3066 42.0283 81.1706 41.8923C81.1706 41.7563 81.1706 41.6203 81.1706 41.3482C81.3066 41.2122 81.4426 40.9402 81.7146 40.9402C81.8507 40.9402 82.1227 41.2122 82.2587 41.3482Z" fill="white"/>
<path d="M20.3699 41.2119C20.5059 41.3479 20.3699 41.6199 20.3699 41.756C20.2338 41.892 19.8258 42.164 19.5538 41.892C19.2817 41.756 19.2817 41.3479 19.2817 41.0759C19.4177 41.0759 19.4177 40.8039 19.6898 40.8039C20.0978 40.9399 20.2338 41.0759 20.3699 41.2119Z" fill="white"/>
<path d="M6.63174 39.4439C6.63174 39.7159 6.49572 39.8519 6.3597 39.9879C6.22368 39.9879 6.08766 40.1239 5.81563 40.1239C5.54359 39.9879 5.40756 39.8519 5.40756 39.5799C5.40756 39.3079 5.67961 39.0358 5.95165 38.8998C6.22369 39.0358 6.49572 39.1718 6.63174 39.4439Z" fill="white"/>
<path d="M95.5887 40.396C95.4527 40.804 95.1807 40.94 94.7726 40.94C94.5006 40.804 94.2285 40.532 94.3646 40.26C94.5006 40.124 94.5006 39.9879 94.7726 39.9879C95.1807 39.8519 95.4527 40.1239 95.5887 40.396Z" fill="white"/>
<path d="M16.0171 41.7563C15.881 42.0283 16.0171 42.3004 15.609 42.4364C15.337 42.5724 14.9289 42.3004 14.7929 42.0283C14.6569 41.6203 14.9289 41.6203 15.0649 41.4843C15.609 41.2123 15.881 41.4843 16.0171 41.7563Z" fill="white"/>
<path d="M87.1555 41.6199C87.1555 41.8919 87.0195 42.0279 86.8834 42.1639C86.6114 42.2999 86.2033 42.1639 86.0673 41.7559C85.9313 41.4839 86.2034 41.2118 86.4754 41.2118C86.7474 41.2118 87.0195 41.2118 87.1555 41.6199Z" fill="white"/>
<path d="M87.8356 42.9803C87.8356 43.3883 87.5636 43.3883 87.4275 43.5244C87.1555 43.5244 86.8835 43.3883 86.7474 43.1163C86.6114 42.7083 87.0195 42.7083 87.1555 42.4363C87.4275 42.4363 87.6996 42.7083 87.8356 42.9803Z" fill="white"/>
<path d="M11.5284 42.2999C11.6644 42.572 11.3923 42.708 11.3923 42.844C11.2563 43.388 10.9843 43.7961 10.7122 44.2041C10.1682 44.8842 9.21602 44.8842 8.3999 45.1562L8.26388 44.8842C9.08 43.6601 10.1682 42.708 11.5284 42.2999Z" fill="white"/>
<path d="M89.4678 42.5721C89.4678 42.8442 89.1958 43.1162 88.9237 43.1162C88.6517 43.1162 88.5157 42.9802 88.3797 42.8442C88.2436 42.7082 88.3797 42.4361 88.5157 42.3001C88.5157 42.1641 88.7877 42.1641 88.9237 42.1641C89.0598 42.1641 89.3318 42.3001 89.4678 42.5721Z" fill="white"/>
<path d="M96.6769 42.9805C96.8129 43.1165 96.8129 43.3886 96.6769 43.5246C96.5409 43.7966 95.9968 43.6606 95.7248 43.6606C95.5888 43.5246 95.4527 43.3886 95.4527 43.1165C95.5888 42.9805 95.7248 42.8445 95.8608 42.7085C96.1328 42.5725 96.4049 42.7085 96.6769 42.9805Z" fill="white"/>
<path d="M13.8408 41.8922C13.9768 42.1642 13.7048 42.3003 13.7048 42.4363C13.5688 42.5723 13.2967 42.5723 13.0247 42.5723C12.7527 42.4363 12.6166 42.1642 12.6166 41.7562C12.7527 41.6202 12.8887 41.4842 13.1607 41.3482C13.4327 41.4842 13.7048 41.6202 13.8408 41.8922Z" fill="white"/>
<path d="M85.2511 44.6127C85.5232 45.0208 85.7952 45.5648 85.9312 45.8368C85.9312 45.9729 85.6592 45.8368 85.6592 45.8368C84.571 45.2928 83.2108 44.6127 82.8028 43.2526C82.6668 43.1166 82.3947 42.9806 82.5307 42.7085C83.3469 42.5725 84.163 43.1166 84.7071 43.6606C84.8431 44.0687 85.1151 44.3407 85.2511 44.6127Z" fill="white"/>
<path d="M93.6845 43.9326C93.9566 43.9326 94.0926 43.5246 94.3646 43.5246C94.6367 43.5246 94.9087 43.6606 95.1808 43.9326C95.3168 44.3407 95.0447 44.4767 94.7727 44.6127C94.5007 44.7487 94.0926 44.4767 94.0926 44.8847C94.3646 45.0207 94.5007 45.2928 94.5007 45.5648C94.5007 45.7008 94.2286 45.7008 94.0926 45.5648C93.1405 45.1567 92.1883 44.6127 91.7803 43.6606C91.6442 43.3886 91.1002 43.1165 91.3722 42.8445C92.3243 42.5725 93.1405 43.3886 93.6845 43.9326Z" fill="white"/>
<path d="M10.4403 41.3483L10.3042 41.6203C9.08006 42.3004 7.58384 42.8445 6.22364 42.3004L6.08762 42.1644C7.3118 41.2123 8.80802 41.0763 10.4403 41.3483Z" fill="white"/>
<path d="M15.0649 42.9805C15.0649 42.9805 15.0649 43.1165 15.2009 43.1165C15.2009 43.5246 14.9289 43.5246 14.7928 43.6606C14.5208 43.6606 14.2488 43.5246 14.1127 43.3886C13.9767 43.1165 14.1127 42.7085 14.3848 42.7085C14.6568 42.5725 15.0649 42.7085 15.0649 42.9805Z" fill="white"/>
<path d="M13.2967 43.3881C13.4328 43.6601 13.1607 43.9321 13.0247 44.0682C12.6166 44.0682 12.4806 44.0682 12.3446 43.7961C12.0726 43.3881 12.4806 43.1161 12.7527 42.9801C13.0247 42.9801 13.1607 43.2521 13.2967 43.3881Z" fill="white"/>
<path d="M89.1958 44.2044C89.1958 44.3404 88.9238 44.4764 88.9238 44.6125C88.6517 44.6125 88.3797 44.7485 88.2437 44.4764C88.2437 44.3404 87.9716 44.0684 88.2437 43.9324C88.3797 43.5243 88.9238 43.7964 89.1958 44.2044Z" fill="white"/>
<path d="M29.3471 50.3251C29.3471 50.5972 29.211 50.7332 28.939 50.8692C28.6669 50.8692 28.5309 50.7332 28.3949 50.5972C28.2589 50.1891 28.5309 50.0531 28.803 49.9171C29.075 49.9171 29.3471 50.0531 29.3471 50.3251Z" fill="white"/>
<path d="M75.1857 48.9647C75.1857 49.3728 74.5056 49.2368 74.2336 49.5088C73.2814 50.0529 72.0573 50.0529 70.9691 49.9168V49.7808C72.0573 48.8287 73.6895 48.5567 75.1857 48.9647Z" fill="white"/>
<path d="M96.9489 44.6123C97.0849 45.0203 96.8129 45.2923 96.5408 45.4283C96.2688 45.5644 95.9967 45.2923 95.7247 45.1563C95.5887 45.0203 95.7247 44.7483 95.7247 44.6123C95.9967 44.4762 96.2688 44.2042 96.5408 44.3402C96.6769 44.3402 96.8129 44.4762 96.9489 44.6123Z" fill="white"/>
<path d="M74.6416 50.7334C74.6416 51.0054 74.5056 51.2774 74.2336 51.4134C73.9615 51.4134 73.8255 51.2774 73.5535 51.1414C73.4174 51.0054 73.5535 50.7334 73.4174 50.5973C73.6895 50.0533 74.5056 50.0533 74.6416 50.7334Z" fill="white"/>
<path d="M80.8987 50.869C80.0826 51.413 79.2664 51.9571 78.1783 51.9571H76.546L76.41 51.8211C77.4982 50.5969 79.4025 50.5969 81.0347 50.7329V50.869H80.8987Z" fill="white"/>
<path d="M20.7778 51.5489C20.7778 51.8209 20.6418 52.0929 20.3698 52.0929C20.0977 52.0929 19.8257 52.0929 19.6897 51.8209C19.5536 51.5489 19.6897 51.2768 19.9617 51.1408C20.2337 50.8688 20.6418 51.2768 20.7778 51.5489Z" fill="white"/>
<path d="M22.2741 51.8212C22.4102 51.9572 22.2741 52.0932 22.1381 52.2293C22.0021 52.3653 21.7301 52.3653 21.594 52.2293C21.322 52.0932 21.322 51.8212 21.458 51.6852C21.594 51.5492 21.7301 51.5492 21.8661 51.4132C22.0021 51.5492 22.2741 51.6852 22.2741 51.8212Z" fill="white"/>
<path d="M10.3043 55.0855C10.0322 55.4935 9.48813 54.9495 9.08007 54.8135C7.99192 54.1334 7.99192 52.9093 6.90376 52.2292C7.03978 51.8212 7.31182 52.2292 7.58386 52.2292C7.71988 52.3652 7.99192 52.5012 8.26396 52.6372C9.35211 53.1813 9.48813 54.1334 10.3043 55.0855Z" fill="white"/>
<path d="M96.5408 41.7559C96.5408 42.1639 95.9967 42.0279 95.8607 42.1639C94.5005 42.98 92.8683 42.2999 91.6441 41.8919C91.7801 41.4838 92.1882 41.6199 92.4602 41.4838C93.6844 40.5318 95.0446 41.6199 96.5408 41.7559Z" fill="white"/>
<path d="M101.982 42.8441C101.438 41.892 100.621 41.484 99.6693 41.484C98.8532 41.484 98.3091 42.028 97.9011 42.8441C97.7651 43.5242 97.9011 44.2042 98.4451 44.6123C98.7172 44.7483 98.9892 44.6123 99.1252 44.4762C99.2613 44.0682 98.8532 44.0682 98.7172 43.7962C98.5812 43.3881 98.7172 42.9801 99.1252 42.7081C99.3973 42.436 99.9414 42.5721 100.349 42.5721C100.757 42.8441 101.166 42.9801 101.302 43.5242C101.438 44.0682 101.438 44.6123 101.302 45.1563C100.894 45.9724 100.213 46.5165 99.3973 46.7885C96.8129 47.1965 68.1127 47.0605 68.1127 47.0605C64.7122 47.3325 60.9037 46.3804 58.0473 48.1486C56.6871 48.8287 56.007 50.1888 55.7349 51.5489C54.9188 52.365 53.9667 53.1811 53.2866 53.9972L53.1506 53.8612C53.2866 53.0451 53.6946 52.501 53.8307 51.685C54.2387 51.0049 54.2387 50.1888 54.6468 49.5087C55.8709 47.6046 56.9591 45.5644 58.8634 44.2042C59.6795 43.1161 61.0397 43.3881 62.2639 43.3881C63.4881 43.9322 65.1203 44.2042 66.6165 44.0682C66.6165 44.0682 66.7525 43.9322 66.7525 43.7962C66.3445 43.3881 65.5284 43.2521 65.1203 42.8441C63.8961 42.3 62.6719 42.9801 61.3117 42.9801L61.1757 42.8441C62.1279 41.756 63.4881 41.0759 64.8483 40.5319C65.9364 39.9878 67.1606 39.5798 68.2488 39.1717C68.6568 39.1717 69.2009 38.7637 69.6089 39.0357L71.2412 38.6277C71.2412 38.6277 71.3772 38.7637 71.5132 38.7637C72.8734 38.3556 74.7777 38.7637 76.2739 38.7637L76.546 38.8997L78.0422 39.3077C78.5862 39.3077 78.8583 39.9878 79.4024 40.1238C79.6744 39.7158 78.9943 39.4437 78.8583 39.1717C79.5384 39.0357 80.3545 39.1717 80.8986 39.4437L80.6266 39.8518C80.4905 40.2598 80.7626 40.3958 81.0346 40.5319C81.3067 40.5319 81.4427 40.3958 81.5787 40.3958C81.9868 40.1238 81.5787 39.8518 81.7147 39.5798C84.0271 39.9878 86.3394 40.5319 88.3797 41.484C88.9238 41.62 89.6039 42.164 90.1479 42.028C89.4678 41.484 88.5157 41.0759 87.6996 40.8039C87.1555 40.5319 86.4754 40.3958 86.0673 39.9878C86.2034 39.8518 86.3394 39.8518 86.4754 39.7158C87.5636 39.5798 88.5157 38.7637 89.1958 37.9476C89.1958 37.8116 89.6039 37.8116 89.6039 37.5396C89.3318 37.2675 88.7877 37.6756 88.5157 37.5396C87.1555 37.8116 86.6114 39.3077 85.2512 39.5798C83.619 39.1717 81.9867 38.7637 80.3545 38.3556C79.5384 38.2196 78.7223 38.2196 78.0422 37.8116L76.2739 37.6756H73.0094L72.8734 37.5396C73.9616 37.2675 74.9137 36.5875 76.1379 36.3154L84.5711 32.5071C85.3872 31.691 86.2034 30.8749 87.0195 29.9228C87.0195 29.6508 86.8835 29.3788 86.6114 29.3788C86.3394 29.2427 86.2034 29.3788 85.9313 29.5148C85.5233 29.7868 85.9313 30.1948 85.9313 30.4669C85.5233 31.0109 84.9792 31.419 84.4351 31.691C84.2991 31.691 75.7298 35.6354 75.7298 35.6354C74.5057 36.1794 73.2815 36.7235 71.9213 36.9955L70.153 37.2675C70.017 37.6756 69.745 37.8116 69.3369 37.9476C68.7928 38.0836 68.3848 38.3556 67.8407 38.3556C63.7601 39.9878 59.5435 41.62 56.279 44.8843C56.415 44.4762 56.551 44.0682 56.551 43.5242C56.551 43.1161 56.551 42.5721 56.143 42.164C56.007 42.028 55.8709 41.484 55.8709 41.3479L55.4629 41.62C55.1908 42.3 54.9188 43.5242 55.1908 44.3402C55.3269 44.8843 55.7349 45.5644 55.3269 46.1084C53.8306 47.8766 53.0145 50.1888 51.9264 52.229C51.5183 52.229 51.3823 51.821 51.2463 51.4129C52.3344 50.0528 53.1505 48.5567 53.4226 46.7885C53.6946 46.6525 53.4226 46.2444 53.6946 45.9724C53.6946 45.4283 53.9667 45.0203 53.6946 44.6123C53.8306 43.9322 52.7425 43.2521 53.5586 42.8441V43.1161C52.1984 44.8843 54.2387 47.6046 52.7425 49.2367V49.3727C52.3344 49.9168 52.0624 50.4608 51.5183 50.8689C50.7022 50.5969 50.4302 49.6448 50.0221 49.1007C49.342 48.4206 49.342 47.0605 49.7501 46.1084C50.0221 45.1563 49.614 44.3402 49.478 43.5242L49.206 43.3881C48.3899 44.3402 48.1178 45.9724 48.7979 47.0605C49.07 47.6046 49.206 48.4206 49.614 48.9647C49.8861 49.9168 50.4302 50.4608 50.9742 51.2769C51.1103 51.5489 50.8382 51.685 50.5662 51.821C50.1581 51.5489 50.2941 51.1409 50.0221 50.8689C48.9339 48.6927 47.5737 46.9245 45.9415 45.0203C45.9415 44.7483 45.5334 44.4762 45.8055 44.2042C46.3496 43.6602 46.4856 42.5721 46.2135 41.756C46.2135 41.62 45.9415 41.3479 45.9415 41.2119L45.5334 40.8039C45.5334 41.892 44.8533 42.8441 45.1254 44.0682C41.8609 41.62 38.3244 39.4437 34.6519 37.8116L34.3798 38.6277C35.332 38.8997 37.7803 40.3958 37.7803 40.3958C38.8685 40.8039 39.8206 41.484 40.9088 42.028C45.1254 44.3402 47.9818 48.2846 49.8861 52.6371C49.8861 53.0451 50.2941 53.3171 50.0221 53.7252C49.342 52.7731 48.3899 52.093 47.5737 51.2769C47.3017 49.7808 46.4856 48.4206 45.1254 47.7406C44.7173 47.0605 43.6292 46.9245 42.813 46.7885H31.3874C22.138 46.6525 13.5688 47.0605 4.31944 46.9245C3.09526 46.7885 1.46302 46.3804 1.05496 45.0203C0.782922 44.6123 0.782922 43.6602 1.05496 43.2521C1.46302 42.7081 2.0071 42.436 2.6872 42.436C3.23128 42.436 3.50332 42.9801 3.77536 43.3881C3.77536 43.7962 3.3673 44.2042 3.23128 44.4762C3.23128 44.6123 3.3673 44.8843 3.63934 44.7483C4.0474 44.6123 4.31944 44.2042 4.45546 43.7962C4.45546 43.5242 4.59148 43.2521 4.31944 43.1161C4.18342 42.436 3.50332 42.028 2.82322 41.756C2.0071 41.756 1.19098 41.892 0.6469 42.436C-0.169219 43.1161 -0.0331983 44.2042 0.102821 45.1563C0.646901 46.5165 2.14312 47.4685 3.50332 47.7406L34.1078 47.8766C37.1002 48.0126 40.5007 47.4685 43.4931 48.1486C44.5813 48.5567 45.8055 49.3727 46.0775 50.5969C46.0775 50.5969 45.9415 50.5969 45.8055 50.5969C43.3571 48.9647 40.0926 48.4206 36.8282 48.8287C35.604 48.8287 34.3798 49.2367 33.2917 49.5087C32.7476 49.6448 32.0675 49.3727 31.7954 48.9647C30.7073 48.0126 28.667 48.0126 27.1708 48.4206C27.1708 48.5567 27.1708 48.5566 27.1708 48.6927C28.667 48.5566 29.6191 49.9168 30.9793 50.0528C31.2514 50.0528 31.5234 49.7808 31.7954 50.0528C30.2992 50.7329 28.939 51.5489 27.4428 51.957C27.0347 51.821 26.7627 51.4129 26.3546 51.1409C25.8106 50.4608 24.7224 50.7329 23.9063 50.7329C23.6343 50.7329 23.3622 50.5969 23.2262 50.7329C23.4982 51.2769 24.0423 51.5489 24.5864 51.821C25.4025 52.229 26.2186 51.821 27.0347 52.229C26.8987 52.501 26.6267 52.501 26.3546 52.6371C24.8584 53.1811 23.6343 54.5412 22.002 54.4052C20.2338 54.5412 18.4655 54.1332 17.3773 52.9091C16.8333 51.685 15.6091 51.0049 14.2489 51.1409C14.1129 51.1409 13.9768 51.1409 14.1129 51.4129C14.793 51.821 15.337 52.6371 16.0171 53.1811C16.4252 53.7252 17.2413 53.1811 17.6494 53.7252C18.1935 54.1332 19.0096 54.5412 19.6897 54.6773C20.2338 54.9493 20.7778 54.9493 21.3219 55.0853L21.0499 55.2213C18.1935 56.1734 14.929 56.3094 11.6645 56.1734C10.7124 56.1734 9.76023 55.9014 8.80809 55.9014C8.94411 56.0374 9.21615 56.3094 9.62421 56.3094C9.35217 56.4454 9.08013 56.5814 8.80809 56.5814C8.40003 56.7175 7.99197 56.7175 7.58391 56.8535C7.03983 56.8535 6.63177 56.9895 6.22371 57.1255C5.67963 57.6696 4.99954 58.3496 4.45546 58.6216C4.45546 58.7577 4.45546 58.8937 4.59148 58.8937C5.13556 58.6216 5.95167 58.8937 6.49575 58.6216C7.58391 58.4856 8.12799 57.3975 8.94411 56.8535C9.76023 56.1734 11.1204 56.3094 12.2086 56.4454C12.8887 56.5814 12.2086 56.8535 12.3446 57.2615C12.6166 57.5335 12.7527 57.6696 13.1607 57.6696C13.1607 57.6696 13.2967 57.5335 13.4328 57.5335C13.5688 57.2615 13.5688 56.9895 13.4328 56.7175C13.8408 56.4454 14.5209 56.7175 14.929 56.5814C16.1532 56.5814 17.3773 56.3094 18.4655 56.3094C18.6015 56.3094 18.8736 56.0374 19.0096 56.3094C18.8736 56.5814 18.6015 56.5814 18.7375 56.9895C18.7375 57.2615 19.1456 57.3975 19.4176 57.3975C19.6897 57.2615 19.9617 56.9895 19.8257 56.5814C19.8257 56.3094 19.5537 56.3094 19.4176 56.1734C20.0977 55.9014 20.7778 55.7654 21.4579 55.4933C21.866 55.3573 22.4101 55.2213 22.8181 55.0853C23.2262 55.0853 23.6343 54.6773 23.9063 54.8133C23.7703 55.3573 23.4982 55.9014 23.2262 56.3094C22.6821 57.9416 22.4101 60.2538 23.2262 61.75C23.3622 61.75 23.3622 61.75 23.3622 61.75C22.6821 60.1178 23.0902 58.0776 23.6343 56.5814C24.0423 53.8612 26.8987 53.0451 28.803 52.093L28.939 52.229C28.3949 53.5892 27.5788 54.9493 27.7148 56.5814C27.7148 56.8535 27.5788 57.1255 27.7148 57.3975C28.2589 57.1255 28.531 56.4454 28.939 55.9014C29.2111 54.5412 28.3949 52.6371 29.7551 51.685C32.3395 50.7329 34.7879 49.3727 37.7803 49.3727C37.9163 49.5087 38.0524 49.3727 38.1884 49.5087C37.5083 50.1888 36.6921 50.8689 36.4201 51.685C35.468 53.0451 35.468 55.4933 35.876 57.1255C36.1481 58.0776 35.332 58.6216 34.9239 59.4377C34.7879 59.7098 34.6519 60.1178 34.5158 60.5258H35.1959C35.74 59.9818 36.2841 59.3017 36.2841 58.4856C36.2841 58.7577 36.6922 59.0297 36.8282 59.1657C37.1002 58.7577 36.6922 58.6216 36.5561 58.2136C37.1002 57.9416 37.2362 58.6216 37.6443 58.6216C38.3244 58.7577 38.8685 59.0297 39.5486 59.0297L39.8206 58.7577C39.1405 57.6696 37.7803 57.5335 36.5561 57.3975C35.876 56.3094 35.876 55.0853 36.0121 53.7252C36.1481 53.0451 36.2841 52.365 36.6922 51.821C36.8282 51.4129 37.2362 51.0049 37.5083 50.5969C38.0524 50.0528 38.7325 49.6448 39.5486 49.5087H39.6846V49.6448C38.8685 50.3248 38.7325 51.2769 38.1884 52.093C37.6443 52.9091 37.3723 53.9972 37.9163 54.8133C38.0524 55.2213 38.0524 55.9014 38.4604 56.1734C38.8685 55.6293 38.8685 54.8133 39.1405 54.2692C39.0045 53.1811 38.4604 52.229 39.0045 51.2769C39.2765 50.4608 39.9566 50.1888 40.6367 49.9168C42.405 49.7808 43.9012 50.5969 45.3974 51.2769C45.6695 51.5489 46.2135 51.685 46.3496 52.093C46.3496 52.9091 45.8055 53.8612 45.1254 54.2692C44.3093 54.8133 43.0851 54.8133 42.269 54.2692C41.8609 53.8612 41.5889 52.9091 41.7249 52.365C42.1329 51.957 42.541 51.685 43.0851 51.821C43.3571 51.957 43.6292 52.229 44.0372 52.093C44.1732 51.957 44.3093 51.685 44.1732 51.5489C43.7652 51.4129 43.7652 50.8689 43.2211 50.8689C42.677 50.7329 41.8609 50.8689 41.4528 51.2769C40.7727 51.821 40.5007 52.6371 40.7727 53.4531C41.0448 54.4052 41.7249 55.2213 42.677 55.4933C44.1732 55.9014 45.6695 55.3573 46.4856 54.1332C46.8936 53.7252 46.8936 53.3171 47.1657 52.7731C48.6619 53.7252 49.7501 55.3573 50.4302 56.9895C50.4302 57.5335 50.5662 58.0776 50.4302 58.6216L51.5183 58.7577C51.3823 58.4856 51.5183 58.2136 51.6543 57.9416C52.0624 55.9014 53.2866 54.1332 54.9188 52.7731C55.4629 52.501 55.3269 53.1811 55.4629 53.4531C55.8709 54.6773 57.0951 55.4933 58.1833 55.9014C59.5435 56.1734 60.7677 55.7654 61.5838 54.8133C61.9918 53.9972 62.5359 52.9091 61.8558 52.093C61.4478 51.5489 60.7677 51.2769 60.0876 51.2769C59.2714 51.2769 58.7274 51.821 58.3193 52.501C58.3193 52.7731 58.3193 53.0451 58.4553 53.1811C58.5913 53.1811 58.8634 53.1811 58.8634 53.0451C58.8634 52.6371 59.2714 52.365 59.6795 52.093C60.0876 51.957 60.3596 52.093 60.6316 52.229C61.0397 52.501 61.0397 53.0451 61.0397 53.4531C61.0397 53.9972 60.6316 54.6773 59.9515 54.9493C58.9994 55.3573 57.7752 55.2213 56.9591 54.6773C56.551 54.2692 56.415 53.7252 56.143 53.3171C56.143 52.7731 55.8709 52.365 56.143 51.821C57.5032 51.0049 58.9994 50.4608 60.6316 50.1888C61.3117 50.3248 61.8558 50.7329 62.2639 51.2769C63.7601 52.7731 61.9918 54.9493 62.944 56.5814C63.352 56.5814 63.352 56.0374 63.4881 55.6294C63.8961 54.5412 63.352 53.3171 63.08 52.093C62.6719 51.4129 62.5359 50.7329 61.8558 50.1888C61.9918 50.1888 62.1279 50.1888 62.2639 50.1888C62.944 50.5969 63.6241 51.1409 64.1682 51.821C65.1203 53.3171 65.5284 55.0853 65.3923 56.9895C65.1203 57.9416 64.1682 58.3496 63.352 58.7577C63.08 59.0297 62.6719 59.4377 62.5359 59.7098C62.944 59.9818 63.4881 59.7098 63.7601 59.5737C64.3042 59.3017 64.7122 58.6216 65.1203 58.2136V58.3496C65.1203 58.7577 64.9843 59.1657 65.2563 59.3017C65.3923 58.8937 65.3923 58.2136 65.5284 57.6696C65.9364 58.0776 65.9364 58.6216 66.0724 59.3017C66.3445 59.8458 66.8886 60.6619 67.5687 60.6619C67.7047 60.3898 67.5687 60.1178 67.4326 59.8458C67.2966 59.0297 66.6165 58.6216 66.2084 58.0776C65.1203 56.5814 65.6644 54.1332 64.7122 52.501C64.4402 51.5489 63.7601 50.8689 63.08 50.1888L63.216 50.0528C64.7122 50.0528 66.0724 50.4608 67.4326 50.8689C69.2009 51.685 71.6492 51.5489 72.4654 53.7252C72.8734 54.9493 73.4175 56.1734 74.2336 57.1255H74.3696C74.5057 56.8535 74.5057 56.3094 74.3696 55.9014C74.2336 54.2692 72.7374 53.9972 72.0573 52.6371L72.1933 52.501C73.0094 52.7731 73.6895 52.9091 74.5057 53.1811C77.09 53.8612 78.7223 56.3094 79.1303 58.8937C79.1303 60.9339 78.7223 62.566 77.9062 64.3342C77.7701 64.6062 77.3621 64.8783 77.6341 65.1503C78.0422 64.8783 78.0422 64.4702 78.1782 64.1982C79.2664 62.43 79.8104 59.9818 79.2664 57.8056C79.2664 57.3975 78.7223 57.1255 78.9943 56.7175C79.1303 56.8535 79.4024 56.9895 79.5384 56.9895C79.6744 56.8535 79.9464 56.8535 80.0825 56.5814C80.0825 56.4454 80.2185 56.1734 80.0825 56.0374C79.9464 55.7654 79.5384 55.7654 79.1303 55.7654C78.9943 55.9014 78.7223 56.1734 78.7223 56.4454C78.4502 55.9014 78.0422 55.2213 77.6341 54.8133V54.6773C78.9943 55.0853 80.3545 55.9014 81.8507 56.1734C82.1228 56.3094 82.5308 56.5814 82.9389 56.5814C84.1631 56.9895 85.5233 57.2615 86.7474 57.5335C87.6996 57.3975 88.5157 57.9416 89.4678 57.6696C89.0598 57.2615 88.3797 57.6696 87.9716 57.2615C85.7953 56.9895 83.755 56.4454 81.7147 55.7654C81.7147 55.6293 81.8507 55.7654 81.9867 55.7654C82.2588 55.6293 82.5308 55.3573 82.5308 54.9493C82.3948 54.6773 82.1228 54.5412 81.8507 54.5412C81.7147 54.6773 81.4427 54.8133 81.4427 55.0853C81.4427 55.3573 81.7147 55.6294 81.8507 55.6294C81.8507 55.6294 81.7147 55.6294 81.5787 55.6294C80.6266 55.2213 79.6744 54.8133 78.7223 54.2692C78.3142 54.2692 78.0422 53.8612 77.7701 53.8612C77.09 53.4531 76.2739 53.1811 75.5938 52.9091C73.5535 51.821 71.3772 51.2769 69.2009 50.5969C68.7928 50.4608 68.2487 50.3248 67.8407 50.1888C67.0246 49.9168 66.2084 49.7808 65.5284 49.5087C62.808 48.8287 59.2714 48.8287 56.9591 50.1888C56.551 50.0528 56.415 50.5969 56.143 50.3248C56.8231 48.5567 58.7274 48.0126 60.4956 48.0126C73.1455 47.8766 84.9792 47.7406 97.357 47.6046C98.8532 47.6046 100.213 47.0605 101.03 45.8364C102.254 44.8843 102.39 43.6602 101.982 42.8441ZM51.9264 54.5412C51.7904 54.9493 51.5183 55.2213 51.5183 55.6294H51.3823C51.5183 55.2213 50.9742 54.8133 51.1103 54.4052C50.8382 53.9972 50.8382 53.5892 50.7022 53.1811C50.4302 52.6371 50.9742 52.501 51.1103 52.093C51.5183 52.229 51.6543 52.6371 52.0624 53.0451C52.3344 53.5891 51.9264 53.9972 51.9264 54.5412Z" fill="white"/>
<path d="M86.0673 52.5012C86.0673 52.6372 86.2033 52.6372 86.2033 52.7732C85.1151 53.7253 83.6189 53.9973 81.9867 54.1333C81.8507 54.1333 81.7146 54.2693 81.5786 54.2693C81.4426 54.2693 81.4426 54.1333 81.5786 53.9973C82.6668 52.7732 84.299 52.0931 86.0673 52.5012Z" fill="white"/>
<path d="M96.949 38.4917C97.085 38.7637 96.949 39.0358 96.813 39.1718C96.677 39.4438 96.4049 39.4438 96.2689 39.3078C96.1329 39.1718 95.8608 39.0358 95.8608 38.7637C95.8608 38.4917 96.1329 38.3557 96.2689 38.2197C96.5409 38.2197 96.677 38.4917 96.949 38.4917Z" fill="white"/>
<path d="M81.0346 53.0453C81.1706 53.4533 80.8985 53.7254 80.4905 53.8614C80.0824 53.8614 79.9464 53.5894 79.8104 53.3173C79.6744 53.0453 79.9464 52.9093 80.0824 52.7733C80.2184 52.5012 80.8985 52.5012 81.0346 53.0453Z" fill="white"/>
<path d="M21.1859 53.0452C21.1859 53.3172 21.1859 53.5892 21.0499 53.7253C20.9139 53.8613 20.6419 53.8613 20.5058 53.8613C20.2338 53.8613 20.0978 53.5892 20.0978 53.4532C20.0978 53.1812 20.2338 53.0452 20.5058 52.9092C20.7779 52.7732 21.0499 52.7732 21.1859 53.0452Z" fill="white"/>
<path d="M15.609 55.0853V55.3573C14.7929 55.4933 14.1128 55.3573 13.5687 54.9493C13.1606 54.2692 12.6165 53.7251 11.9364 53.3171C11.9364 53.1811 11.8004 53.0451 11.9364 53.0451C13.4327 53.0451 14.3848 54.2692 15.609 55.0853Z" fill="white"/>
<path d="M90.8281 53.0454C90.148 54.1335 89.4679 55.4937 88.2437 55.9017C87.9717 55.9017 87.8357 56.1737 87.6996 56.0377C88.2437 54.8136 89.3319 53.5895 90.556 53.0454C90.556 53.0454 90.6921 52.9094 90.8281 53.0454Z" fill="white"/>
<path d="M23.0901 53.4531C23.0901 53.8612 22.8181 53.8612 22.682 53.9972C22.41 53.9972 22.274 53.8612 22.138 53.5891C22.0019 53.3171 22.274 53.1811 22.41 53.0451C22.682 53.0451 22.9541 53.1811 23.0901 53.4531Z" fill="white"/>
<path d="M94.7725 53.5891C94.5004 53.9971 94.6365 54.5412 94.3644 55.0852C93.6843 55.7653 93.1402 56.5814 92.1881 56.8534C92.0521 56.5814 92.4601 56.1733 92.5962 55.9013C93.0042 54.9492 93.6843 53.8611 94.6365 53.453L94.7725 53.5891Z" fill="white"/>
<path d="M5.8157 53.8611C5.95172 54.1331 5.95172 54.2691 5.8157 54.5411C5.67968 54.6771 5.40764 54.8132 5.1356 54.6771C4.86356 54.5411 4.72754 54.1331 4.86356 53.8611C4.99958 53.725 5.67968 53.453 5.8157 53.8611Z" fill="white"/>
<path d="M4.04737 54.2695C4.04737 54.4055 4.18339 54.5415 4.18339 54.6775C4.04737 54.8135 3.91136 55.0856 3.77534 55.0856C3.36728 55.0856 3.23126 54.9495 3.09524 54.6775C3.09524 54.4055 3.09523 54.1335 3.36727 53.9974C3.63931 53.8614 3.91135 53.9974 4.04737 54.2695Z" fill="white"/>
<path d="M7.71984 54.4057C7.71984 54.6777 7.85586 55.0858 7.4478 55.2218C7.03974 55.3578 6.7677 55.0857 6.49566 54.8137C6.49566 54.5417 6.63168 54.2697 6.90372 54.1337C7.31178 54.1337 7.58382 54.1337 7.71984 54.4057Z" fill="white"/>
<path d="M12.8886 54.8134C12.8886 55.0854 12.8886 55.3574 12.6165 55.3574C12.4805 55.4934 12.2085 55.4934 12.0724 55.3574C12.0724 55.2214 11.6644 54.9494 11.8004 54.8134C11.9364 54.6773 12.0724 54.5413 12.2085 54.4053C12.4805 54.6773 12.7525 54.5413 12.8886 54.8134Z" fill="white"/>
<path d="M97.765 55.0857C97.629 55.3577 97.493 55.6297 97.357 55.6297C97.0849 55.6297 96.8129 55.6297 96.6769 55.2217C96.5409 54.8137 96.8129 54.6776 97.0849 54.5416C97.357 54.5416 97.765 54.6776 97.765 55.0857Z" fill="white"/>
<path d="M92.0522 55.2215C92.0522 55.4935 91.7802 55.6296 91.6442 55.7656C91.2361 55.9016 90.828 55.6296 90.692 55.2215C90.692 54.9495 90.9641 54.8135 91.2361 54.6775C91.6442 54.6775 91.9162 54.9495 92.0522 55.2215Z" fill="white"/>
<path d="M95.9967 55.2214C95.9967 55.4934 95.8607 55.6294 95.7247 55.7654C95.4527 55.9015 95.1806 55.7654 94.9086 55.6294C94.6365 55.3574 94.9086 55.2214 95.0446 54.9494C95.3166 54.8133 95.8607 54.8133 95.9967 55.2214Z" fill="white"/>
<path d="M4.99947 55.7655C4.99947 56.1736 4.99947 56.4456 4.59141 56.5816C4.31937 56.5816 4.04733 56.4456 3.91131 56.1736C3.91131 55.9016 3.91131 55.6295 4.18335 55.4935C4.59141 55.3575 4.86345 55.4935 4.99947 55.7655Z" fill="white"/>
<path d="M90.4199 56.0378C90.5559 56.4459 90.2838 56.7179 90.0118 56.8539C89.7398 56.8539 89.6037 56.8539 89.4677 56.5819C89.3317 56.4459 89.1957 56.0378 89.4677 55.9018C89.6037 55.4938 90.2838 55.7658 90.4199 56.0378Z" fill="white"/>
<path d="M22.002 56.4458C22.138 56.8538 21.73 56.8538 21.594 56.9898C21.4579 56.9898 21.1859 57.1258 21.1859 56.9898C21.0499 56.8538 20.7778 56.5818 20.9139 56.3098C21.0499 56.1737 21.1859 56.0377 21.3219 56.0377C21.594 55.9017 21.73 56.1737 22.002 56.4458Z" fill="white"/>
<path d="M97.221 56.5816C97.221 56.8536 97.085 56.8536 97.085 56.9896C96.949 57.1256 96.5409 57.1256 96.4049 57.1256C96.1329 57.1256 96.1329 56.8536 96.1329 56.5816C96.2689 56.4456 96.4049 56.3095 96.5409 56.1735C96.813 56.1735 97.085 56.3096 97.221 56.5816Z" fill="white"/>
<path d="M95.3166 56.7179C95.4527 57.1259 95.0446 57.2619 94.9086 57.3979C94.7726 57.3979 94.6366 57.3979 94.5005 57.5339C95.3167 57.942 95.8607 58.6221 96.4048 59.1661V59.4381C95.3166 59.4381 94.0925 59.1661 93.2764 58.214C93.0043 58.078 92.7323 58.078 92.4602 57.806C92.8683 57.3979 93.6844 57.5339 94.2285 57.5339C94.6365 57.1259 93.8204 56.7179 94.2285 56.4458C94.3645 56.4458 94.5005 56.1738 94.7726 56.3098C95.0446 56.4458 95.1806 56.5819 95.3166 56.7179Z" fill="white"/>
<path d="M82.3947 56.7175C82.3947 56.8536 82.2587 57.1256 82.2587 57.2616C82.1227 57.3976 81.8507 57.5336 81.5786 57.3976C81.4426 57.1256 81.1706 56.9896 81.3066 56.7175C81.5786 56.1735 82.3947 56.3095 82.3947 56.7175Z" fill="white"/>
<path d="M12.0726 57.8057C11.9366 58.0777 11.8005 58.2137 11.5285 58.3497C11.2565 58.3497 11.1204 58.2137 10.9844 57.9417C10.9844 57.6697 11.1204 57.5337 11.1204 57.3977C11.5285 57.2616 12.2086 57.3977 12.0726 57.8057Z" fill="white"/>
<path d="M14.6568 57.3976C14.6568 57.8057 14.2488 58.0777 13.9767 58.4857C13.5687 59.5739 12.6165 60.5259 11.5284 60.5259C11.3924 60.2539 11.9364 59.8459 12.0725 59.5739C12.6165 58.4857 13.5687 57.9417 14.5208 57.2616H14.6568V57.3976Z" fill="white"/>
<path d="M81.7145 57.9419C81.7145 58.3499 81.4425 58.4859 81.1705 58.6219C80.8984 58.758 80.6264 58.4859 80.4904 58.3499C80.2183 58.0779 80.3543 57.8059 80.4904 57.5338C80.8984 57.2618 81.4425 57.5338 81.7145 57.9419Z" fill="white"/>
<path d="M83.6189 58.0776C83.6189 58.4856 83.3469 58.6216 83.0748 58.7576C83.0748 58.6216 82.8028 58.7576 82.8028 58.7576C82.5307 58.6216 82.3947 58.4856 82.3947 58.2136C82.5308 58.0776 82.6668 57.8055 82.8028 57.8055C83.0748 57.6695 83.4829 57.8055 83.6189 58.0776Z" fill="white"/>
<path d="M19.5537 58.0776C19.5537 58.4857 19.2817 58.6217 19.1457 58.7577C18.8736 58.7577 18.7376 58.6217 18.6016 58.3497C18.6016 58.0776 18.8736 57.9416 19.0096 57.6696C19.2817 57.6696 19.2817 57.9416 19.5537 58.0776Z" fill="white"/>
<path d="M21.73 58.2137C21.594 58.4857 21.458 58.6217 21.1859 58.7577C20.9139 58.7577 20.7779 58.6217 20.6418 58.3497C20.6418 58.0776 20.9139 57.9416 21.0499 57.6696C21.3219 57.8056 21.594 57.8056 21.73 58.2137Z" fill="white"/>
<path d="M90.42 60.3901C90.5561 60.5261 90.8281 60.6621 90.8281 60.9342C90.284 61.2062 89.8759 60.5261 89.4679 60.5261C88.6518 59.71 88.1077 58.894 87.8356 57.9419C88.1077 57.6698 88.3797 57.9419 88.6518 58.0779C89.3319 58.7579 90.012 59.574 90.42 60.3901Z" fill="white"/>
<path d="M91.5081 58.2138C91.6441 58.4858 91.5081 58.6218 91.5081 58.8938C91.3721 59.1659 90.964 59.1659 90.692 59.0299C90.5559 58.8938 90.2839 58.6218 90.4199 58.3498C90.556 58.0778 90.828 58.0778 90.964 57.9418C91.1 57.9418 91.3721 58.0778 91.5081 58.2138Z" fill="white"/>
<path d="M24.5863 59.0297C24.5863 59.3018 24.7223 59.7098 24.3142 59.8458C24.0422 59.8458 23.6341 59.8458 23.4981 59.4378C23.3621 59.0297 23.6341 59.0297 23.9062 58.7577C24.3142 58.7577 24.4503 58.8937 24.5863 59.0297Z" fill="white"/>
<path d="M83.4829 61.0703C83.891 61.7504 84.2991 62.4304 84.2991 63.3825C84.163 63.6546 84.4351 63.7906 84.2991 63.9266H84.163C82.8028 62.9745 82.3948 61.4783 81.8507 60.1182C81.7147 60.1182 81.7147 59.9822 81.7147 59.8462C81.9867 59.5741 82.2587 60.1182 82.5308 60.2542L83.4829 61.0703Z" fill="white"/>
<path d="M28.6669 59.982C28.6669 60.118 28.6669 60.118 28.6669 59.982C27.4427 60.9341 25.6745 61.4781 24.1783 60.662C24.1783 60.526 24.1783 60.39 24.3143 60.39C25.2664 60.118 26.0825 59.7099 27.0347 59.8459L28.6669 59.982Z" fill="white"/>
<path d="M21.5938 60.1181C20.5057 60.7982 19.5535 62.0223 18.1933 62.4304C17.9213 62.5664 17.7853 62.8384 17.5132 62.7024C18.0573 60.9342 19.9616 60.1181 21.5938 59.9821V60.1181Z" fill="white"/>
<path d="M81.7147 61.6141C81.8507 61.8861 81.7147 62.1581 81.4426 62.2942C81.3066 62.4302 81.0346 62.4302 80.8986 62.2942C80.6265 62.1581 80.6265 61.8861 80.6265 61.6141C80.7625 61.3421 80.8986 61.3421 81.0346 61.206C81.3066 61.3421 81.5787 61.3421 81.7147 61.6141Z" fill="white"/>
<path d="M78.9942 61.7501C78.8582 62.1581 78.3141 62.4301 77.9061 62.5662C76.8179 62.9742 75.8658 62.4301 74.9136 62.1581C74.9136 61.8861 75.3217 62.0221 75.4577 61.8861C76.5459 61.6141 77.498 61.4781 78.7222 61.7501C78.7222 61.6141 78.9942 61.6141 78.9942 61.7501Z" fill="white"/>
<path d="M21.5939 62.7024C21.4579 62.8384 21.4579 63.1104 21.1858 63.2464C20.9138 63.3824 20.7778 63.2464 20.5057 63.1104C20.5057 62.9744 20.2337 62.7024 20.3697 62.5664C20.3697 62.2943 20.6418 62.2943 20.9138 62.1583C21.1858 62.1583 21.4579 62.4303 21.5939 62.7024Z" fill="white"/>
<path d="M23.3622 62.9742C23.2262 63.1102 23.2262 63.3822 22.9541 63.5183C22.6821 63.5183 22.5461 63.5183 22.274 63.2462C22.138 63.1102 22.138 62.8382 22.138 62.5662C22.138 62.4302 22.4101 62.4302 22.5461 62.2941C22.9541 62.4302 23.2262 62.7022 23.3622 62.9742Z" fill="white"/>
<path d="M81.0346 63.2462C81.0346 63.5182 80.8986 63.6542 80.7626 63.7902C80.6266 64.0623 80.3545 64.0623 80.0825 63.9262C79.8104 63.9262 79.8104 63.6542 79.6744 63.5182C79.5384 63.2462 79.8104 63.1102 79.9465 62.8381C80.3545 62.7021 80.8986 62.8381 81.0346 63.2462Z" fill="white"/>
<path d="M82.3949 63.2462C82.3949 63.3822 82.5309 63.5182 82.3949 63.6543C82.2588 63.7903 82.1228 64.1983 81.7148 64.0623C81.5787 64.0623 81.4427 63.9263 81.3067 63.7903C81.1707 63.5183 81.3067 62.9742 81.7148 62.9742C82.1228 62.8382 82.2588 63.1102 82.3949 63.2462Z" fill="white"/>
<path d="M22.274 64.1984C22.274 64.6065 22.274 64.8785 22.002 65.0145C21.5939 65.0145 21.1859 65.0145 21.0499 64.6065C21.0499 64.3345 21.0499 63.9264 21.4579 63.6544C21.73 63.6544 22.138 63.7904 22.274 64.1984Z" fill="white"/>
<path d="M24.0423 64.0624C24.0423 65.0145 23.7703 65.9665 22.9542 66.5106C22.4101 66.6466 22.002 67.0547 21.458 66.7826V66.6466C22.002 65.5585 23.2262 64.8784 24.0423 64.0624Z" fill="white"/>
<path d="M76.1379 64.7427C76.2739 64.8787 76.0018 65.1508 76.0018 65.2868C75.8658 65.5588 75.4578 65.4228 75.1857 65.2868C74.9137 65.1508 74.9137 64.8787 75.0497 64.6067C75.0497 64.4707 75.3218 64.3347 75.4578 64.1987C75.7298 64.1987 76.0019 64.4707 76.1379 64.7427Z" fill="white"/>
<path d="M27.1707 66.2387C27.5788 66.9188 27.3067 68.0069 27.5787 68.687C27.0347 68.687 26.7626 68.1429 26.4906 67.8709C25.8105 66.9188 25.9465 65.6947 25.5384 64.6065C25.5384 64.4705 25.6745 64.4705 25.8105 64.6065C26.2186 64.8786 26.6266 65.5586 27.0347 65.9667C27.0347 65.9667 27.1707 65.9667 27.1707 66.2387Z" fill="white"/>
<path d="M77.7702 65.0144C77.7702 65.2864 77.4982 65.2864 77.3621 65.4224C77.0901 65.4224 76.9541 65.2864 76.8181 65.1504C76.682 64.8784 76.9541 64.7424 77.0901 64.6064C77.3621 64.4703 77.6342 64.6064 77.7702 65.0144Z" fill="white"/>
<path d="M81.4427 67.8707C81.4427 68.0067 81.4427 68.1428 81.3067 68.1428H81.1706C80.2185 67.3267 79.4024 66.3746 79.5384 65.1505H79.6744C80.4905 65.6945 81.4427 66.5106 81.4427 67.8707Z" fill="white"/>
<path d="M79.1304 66.7826C79.1304 67.0546 78.9944 67.1906 78.8584 67.3267C78.4503 67.4627 78.0422 67.3267 77.9062 66.9186C77.9062 66.6466 78.1783 66.5106 78.3143 66.2386C78.7223 66.2386 78.9944 66.5106 79.1304 66.7826Z" fill="white"/>
<path d="M76.9541 67.4627C76.546 68.6868 75.3219 69.2309 74.5057 70.183C74.3697 70.047 74.3697 69.7749 74.5057 69.7749C74.7778 68.5508 75.7299 67.4627 76.9541 66.9187C77.3622 66.9187 76.9541 67.1907 76.9541 67.4627Z" fill="white"/>
<path d="M79.4024 68.4148C79.4024 68.6868 79.1304 68.8228 78.9944 68.9589C78.7223 68.9589 78.4503 68.8228 78.3142 68.5508C78.3142 68.2788 78.5863 68.1428 78.7223 68.0068C78.9943 68.0068 79.2664 68.1428 79.4024 68.4148Z" fill="white"/>
<path d="M56.0069 10.881C56.415 10.881 56.823 11.289 56.823 11.697C56.823 12.1051 56.415 12.5131 56.0069 12.5131H46.6215C46.2135 12.5131 45.8054 12.1051 45.8054 11.697C45.8054 11.289 46.2135 10.881 46.6215 10.881H56.0069ZM49.3419 12.2411C50.2941 12.2411 49.3419 11.153 48.9339 11.153H47.9817C47.0296 11.153 47.9817 12.2411 48.3898 12.2411H49.3419ZM53.1505 12.2411C54.1026 12.2411 53.1505 11.153 52.7424 11.153H51.7903C50.8381 11.153 51.7903 12.2411 52.1983 12.2411H53.1505ZM56.0069 11.153H55.5988C54.6467 11.153 55.4628 12.2411 56.0069 12.2411C56.687 12.2411 56.687 11.153 56.0069 11.153Z" fill="white"/>
<path d="M55.1908 21.6261L56.959 22.3062L58.7273 21.6261L58.0472 24.2104L59.4074 23.9383L58.9993 25.5705L59.4074 27.0666L58.1832 26.7946L58.7273 29.6509L56.959 28.9708L55.1908 29.5149L55.8709 26.6586L54.5107 27.0666L54.9187 25.4345L54.5107 24.0743L55.8709 24.3464L55.1908 21.6261ZM57.7751 26.3866C58.1832 26.3866 58.1832 25.8425 58.1832 25.2985C58.1832 24.2104 57.3671 25.2985 56.823 24.3464C56.551 25.1625 55.5988 24.3464 55.5988 25.2985C55.5988 25.9785 55.5988 26.3866 56.2789 26.3866H57.7751ZM56.0069 25.4345C56.0069 25.8425 56.551 25.5705 56.959 25.5705C57.3671 25.5705 57.9112 25.8425 57.9112 25.4345C57.9112 24.8904 57.3671 25.0264 56.959 25.0264C56.551 25.0264 56.0069 24.7544 56.0069 25.4345Z" fill="white"/>
<path d="M50.9743 25.4347V25.1627L50.7022 25.0267L50.9743 24.8906L50.8382 24.6186H51.1103L51.2463 24.3466L51.5183 24.6186H51.7904L51.6544 24.8906L51.9264 25.0267L51.5183 25.1627V25.4347L51.2463 25.2987L50.9743 25.4347Z" fill="white"/>
<path d="M49.6141 27.2029V26.9309H49.342L49.6141 26.6589L49.342 26.3868H49.7501L49.8861 26.1148L50.0221 26.3868H50.4302L50.2942 26.6589L50.4302 26.9309H50.1582V27.2029L49.8861 27.0669L49.6141 27.2029Z" fill="white"/>
<path d="M51.9263 27.0668V26.6587H51.6543L51.9263 26.3867L51.7903 26.1147H52.0624L52.1984 25.8427L52.4704 26.1147H52.7424L52.6064 26.3867L52.8785 26.6587H52.4704V27.0668L52.1984 26.7948L51.9263 27.0668Z" fill="white"/>
<path d="M52.1984 28.4268V28.1547H52.0624L52.1984 28.0187L52.0624 27.8827H52.3344V27.7467L52.4705 27.8827H52.6065V28.0187L52.7425 28.1547H52.6065V28.4268L52.3344 28.2908L52.1984 28.4268Z" fill="white"/>
<path d="M50.0221 29.9232V29.3792L49.6141 29.2432L49.8861 28.8351L49.7501 28.2911L50.1581 28.4271L50.5662 27.883L50.8382 28.4271L51.3823 28.2911L51.1103 28.8351L51.5183 29.2432L50.9743 29.3792V29.9232L50.5662 29.5152L50.0221 29.9232Z" fill="white"/>
<path d="M51.1102 0L52.3343 2.72027L55.0547 1.90419L53.6945 4.48844L56.0069 6.1206L53.1504 6.66466L53.2865 9.65696L51.1102 7.61675L48.9338 9.65696L49.2059 6.66466L46.3495 6.1206L48.6618 4.48844L47.3016 1.90419L50.022 2.72027L51.1102 0Z" fill="white"/>
<path d="M52.0624 22.4422C52.0624 21.2181 51.3823 22.3062 50.9742 21.2181C50.7022 22.1702 49.7501 21.3541 49.7501 22.3062C49.7501 22.7143 49.8861 22.8503 50.0221 22.9863V23.3943C50.0221 23.5304 50.1581 23.5304 50.1581 23.5304H51.5183C51.6543 23.5304 51.6543 23.3943 51.6543 23.3943V22.9863C51.9264 22.9863 52.0624 22.8503 52.0624 22.4422ZM50.9742 22.7143C50.5662 22.7143 50.0221 22.9863 50.0221 22.5783C50.0221 21.8982 50.4302 22.0342 50.8382 22.0342C51.2463 22.0342 51.7904 21.8982 51.7904 22.5783C51.7904 22.9863 51.2463 22.7143 50.9742 22.7143Z" fill="white"/>
<path d="M63.3519 38.356C63.624 38.356 63.896 38.084 63.896 37.812C63.896 37.5399 63.624 37.2679 63.3519 37.2679C63.0799 37.2679 62.8079 37.5399 62.8079 37.812C62.6718 38.084 62.9439 38.356 63.3519 38.356Z" fill="white"/>
<path d="M60.4956 19.1778C60.4956 19.1778 60.2236 19.5858 60.2236 19.7218C60.2236 19.8578 60.3596 19.9938 60.4956 19.9938C60.6317 19.9938 60.7677 19.8578 60.7677 19.7218L60.4956 19.1778Z" fill="white"/>
<path d="M41.5889 19.1778C41.5889 19.1778 41.3168 19.5858 41.3168 19.7218C41.3168 19.8578 41.4528 19.9938 41.5889 19.9938C41.7249 19.9938 41.8609 19.8578 41.8609 19.7218L41.5889 19.1778Z" fill="white"/>
<path d="M46.2135 19.1778C46.2135 19.1778 45.9414 19.5858 45.9414 19.7218C45.9414 19.8578 46.0774 19.9938 46.2135 19.9938C46.3495 19.9938 46.4855 19.8578 46.4855 19.7218C46.6215 19.7218 46.2135 19.1778 46.2135 19.1778Z" fill="white"/>
<path d="M50.9742 19.1778C50.9742 19.1778 50.7022 19.5858 50.7022 19.7218C50.7022 19.8578 50.8382 19.9938 50.9742 19.9938C51.1103 19.9938 51.2463 19.8578 51.2463 19.7218L50.9742 19.1778Z" fill="white"/>
<path d="M55.7349 19.1778C55.7349 19.1778 55.4628 19.5858 55.4628 19.7218C55.4628 19.8578 55.5988 19.9938 55.7349 19.9938C55.8709 19.9938 56.0069 19.8578 56.0069 19.7218L55.7349 19.1778Z" fill="white"/>
<path d="M41.5887 25.7068C41.5887 25.7068 41.8607 26.1149 41.8607 26.2509C41.8607 26.3869 41.7247 26.5229 41.5887 26.5229C41.4527 26.5229 41.3167 26.3869 41.3167 26.2509C41.1807 26.2509 41.5887 25.7068 41.5887 25.7068Z" fill="white"/>
<path d="M41.5887 32.0991C41.5887 32.0991 41.8607 32.5071 41.8607 32.6431C41.8607 32.7792 41.7247 32.9152 41.5887 32.9152C41.4527 32.9152 41.3167 32.7792 41.3167 32.6431C41.1807 32.6431 41.5887 32.0991 41.5887 32.0991Z" fill="white"/>
<path d="M42.2689 37.1316C42.2689 37.1316 42.541 37.5396 42.541 37.6757C42.541 37.8117 42.4049 37.9477 42.2689 37.9477C42.1329 37.9477 41.9969 37.8117 41.9969 37.6757C41.9969 37.6757 42.2689 37.1316 42.2689 37.1316Z" fill="white"/>
<path d="M46.2135 39.7158C46.2135 39.7158 46.4855 40.1238 46.4855 40.2598C46.4855 40.3958 46.3495 40.5318 46.2135 40.5318C46.0774 40.5318 45.9414 40.3958 45.9414 40.2598C45.9414 40.2598 46.2135 39.7158 46.2135 39.7158Z" fill="white"/>
<path d="M60.7677 25.7068C60.7677 25.7068 60.4956 26.1149 60.4956 26.2509C60.4956 26.3869 60.6317 26.5229 60.7677 26.5229C60.9037 26.5229 61.0397 26.3869 61.0397 26.2509L60.7677 25.7068Z" fill="white"/>
<path d="M60.7677 32.0991C60.7677 32.0991 60.4956 32.5071 60.4956 32.6431C60.4956 32.7792 60.6317 32.9152 60.7677 32.9152C60.9037 32.9152 61.0397 32.7792 61.0397 32.6431L60.7677 32.0991Z" fill="white"/>
<path d="M59.9515 37.1316C59.9515 37.1316 59.6795 37.5396 59.6795 37.6757C59.6795 37.8117 59.8155 37.9477 59.9515 37.9477C60.0876 37.9477 60.2236 37.8117 60.2236 37.6757L59.9515 37.1316Z" fill="white"/>
<path d="M56.0069 39.7158C56.0069 39.7158 55.7348 40.1238 55.7348 40.2598C55.7348 40.3958 55.8709 40.5318 56.0069 40.5318C56.1429 40.5318 56.2789 40.3958 56.2789 40.2598L56.0069 39.7158Z" fill="white"/>
<path d="M51.1103 42.5721C51.1103 42.5721 50.8382 42.9801 50.8382 43.1161C50.8382 43.2521 50.9742 43.3882 51.1103 43.3882C51.2463 43.3882 51.3823 43.2521 51.3823 43.1161C51.5183 43.1161 51.1103 42.5721 51.1103 42.5721Z" fill="white"/>
<path d="M58.8633 33.0514C58.8633 33.1874 59.1354 33.1874 59.2714 33.0514L59.4074 32.5073L59.1354 32.2353C58.5913 32.3713 58.0472 32.3713 57.7752 32.9154C57.7752 33.1874 58.0472 33.5954 58.3192 33.7315C58.4553 33.7315 58.5913 33.8675 58.5913 34.0035C58.5913 34.1395 58.5913 34.2755 58.3192 34.2755C57.9112 33.8675 57.3671 34.4115 57.0951 34.0035C57.2311 33.5954 57.5031 33.0514 57.0951 32.6434C57.0951 32.5073 57.2311 32.5073 57.2311 32.3713C57.0951 31.9633 56.687 32.2353 56.415 32.2353C56.0069 32.2353 55.5988 32.3713 55.3268 32.7794C55.3268 32.9154 55.4628 33.0514 55.5988 33.1874C55.7349 33.1874 55.7349 33.1874 55.8709 33.3234L55.4628 33.5954C55.5988 33.7315 55.5988 33.8675 55.5988 33.8675C55.3268 34.0035 55.1908 33.5954 55.0548 33.4594C55.0548 33.1874 55.0548 32.7794 54.7827 32.7794L54.5107 32.9154C54.3747 33.0514 54.3747 33.1874 54.3747 33.4594C54.3747 33.7315 54.5107 34.0035 54.5107 34.0035C54.5107 34.0035 55.4628 34.6836 55.5988 35.0916C55.3268 35.6356 55.3268 36.4517 54.6467 36.7238C54.5107 36.8598 54.5107 36.9958 54.5107 37.2678L54.6467 37.4038C55.0548 37.1318 55.7349 37.1318 55.7349 36.4517C55.8709 36.1797 56.0069 35.9077 56.2789 35.6356C56.551 35.6356 56.823 35.7717 56.959 35.9077C56.823 36.3157 56.551 36.7238 56.1429 36.8598C56.1429 36.8598 56.1429 36.9958 56.1429 37.1318C56.2789 37.4038 56.551 37.2678 56.823 37.2678C57.3671 36.9958 57.5031 36.3157 58.0472 36.1797C58.0472 36.4517 57.5031 36.5877 57.9112 36.8598C58.1832 36.8598 58.5913 36.8598 58.7273 36.5877C58.4553 36.0437 59.4074 35.7717 58.8633 35.3636C58.8633 34.9556 59.4074 34.6836 59.2714 34.2755C59.1354 33.7315 58.5913 33.7315 58.3192 33.3234C58.4553 33.0514 58.7273 33.0514 58.8633 33.0514Z" fill="white"/>
<path d="M37.1003 38.6277C37.3724 38.6277 37.6444 38.3557 37.6444 38.0836C37.6444 37.8116 37.3724 37.5396 37.1003 37.5396C36.8283 37.5396 36.5562 37.8116 36.5562 38.0836C36.4202 38.3557 36.6923 38.6277 37.1003 38.6277Z" fill="white"/>
<path d="M6.22367 56.5815C6.49571 56.5815 6.76775 56.3095 6.76775 56.0375C6.76775 55.7654 6.49571 55.4934 6.22367 55.4934C5.95163 55.4934 5.67959 55.7654 5.67959 56.0375C5.67959 56.3095 5.95163 56.5815 6.22367 56.5815Z" fill="white"/>
<path d="M62.1279 18.4976H40.2287V35.2273C40.2287 36.9955 40.9088 38.4916 41.997 38.8997L50.4302 44.2042C50.5662 44.4762 50.8383 44.6122 51.2463 44.6122C51.5184 44.6122 51.7904 44.4762 51.9264 44.3402L60.4957 38.8997C61.4478 38.4916 62.2639 36.9955 62.2639 35.2273L62.1279 18.4976ZM61.4478 35.3633C61.3118 36.5874 60.9037 37.6755 60.0876 38.2196L51.7904 43.5241C51.6544 43.6601 51.3824 43.7961 51.1103 43.7961C50.8383 43.7961 50.7023 43.6601 50.4302 43.5241L42.133 38.2196C41.3169 37.6755 40.7728 36.5874 40.7728 35.3633V19.0417H61.4478V35.3633Z" fill="white"/>
<path d="M68.3847 65.9667L66.3444 65.6947V65.5586C66.7525 65.5586 66.8885 65.5586 66.8885 65.4226C66.8885 65.2866 66.7525 64.8786 66.6165 64.7426L65.1202 64.6066C64.8482 65.0146 64.7122 65.1506 64.7122 65.2866C64.7122 65.4226 64.9842 65.5586 65.2563 65.5586V65.6947L63.8961 65.5586V65.4226C64.3041 65.4226 64.3041 65.2866 64.5762 64.8786L66.3444 62.1583H66.4804L67.5686 65.1506C68.1127 65.5586 68.1127 65.6947 68.3847 65.9667ZM66.6165 64.4705L66.0724 63.1104L65.3923 64.3345L66.6165 64.4705Z" fill="white"/>
<path d="M64.0321 65.2865L61.8557 64.8784V64.7424C62.2638 64.7424 62.3998 64.8784 62.5358 64.4704L63.0799 61.8861C63.2159 61.4781 62.8079 61.4781 62.5358 61.3421V61.206L64.7122 61.6141V61.7501C64.4401 61.7501 64.1681 61.6141 64.0321 62.0221L63.488 64.7424C63.488 65.0144 63.624 65.1504 64.0321 65.2865Z" fill="white"/>
<path d="M61.5839 64.7423L57.9113 64.0623V63.9263C58.3194 63.9263 58.4554 63.9263 58.4554 63.6542L58.8635 61.07C58.8635 60.6619 58.7275 60.6619 58.4554 60.6619V60.5259L60.6317 60.934V61.07C60.2237 61.07 59.9516 60.934 59.9516 61.478L59.5436 63.9263C59.5436 64.1983 59.6796 64.1983 60.0877 64.3343C61.0398 64.4703 61.4478 64.1983 61.8559 63.6542H61.9919L61.5839 64.7423Z" fill="white"/>
<path d="M57.7751 64.0623L55.7348 63.7903V63.6543C56.1429 63.6543 56.2789 63.6543 56.2789 63.5183C56.2789 63.3823 56.1429 62.9742 56.1429 62.7022L54.6467 62.5662C54.3746 62.9742 54.2386 63.1102 54.2386 63.2463C54.2386 63.3823 54.5107 63.5183 54.7827 63.5183V63.6543L53.5585 63.5183V63.3823C53.9666 63.3823 53.9666 63.2463 54.2386 62.8382L56.0069 60.1179H56.1429L57.2311 63.1102C57.5031 63.6543 57.5031 63.9263 57.7751 63.9263V64.0623ZM56.0069 62.5662L55.4628 61.2061L54.6467 62.4302L56.0069 62.5662Z" fill="white"/>
<path d="M53.6947 63.5183H52.3345L51.1103 61.7502H50.9743V62.8383C50.9743 63.2463 51.1103 63.2463 51.5183 63.3823V63.5183H49.342V63.3823C49.7501 63.3823 49.8861 63.3823 49.8861 62.8383V60.39C49.8861 59.982 49.7501 59.846 49.342 59.846V59.71H51.3823C51.7904 59.71 53.1506 59.846 53.1506 60.6621C53.1506 61.3421 52.4705 61.4781 52.0624 61.6142L53.2866 63.1103C53.4226 63.3823 53.5586 63.3823 53.6947 63.5183ZM50.8383 61.6142C51.6544 61.6142 52.0624 61.4781 52.0624 60.7981C52.0624 60.254 51.7904 59.982 51.2463 59.982C50.8382 59.982 50.8383 59.982 50.8383 60.254V61.6142Z" fill="white"/>
<path d="M48.2538 63.5182L45.9414 63.7902V63.6542C46.3495 63.5182 46.6215 63.5182 46.4855 63.1101L46.2135 60.2538C45.8054 60.2538 45.1253 60.3899 45.1253 61.342H44.9893L44.8533 60.2538L48.6618 59.8458L48.7978 60.9339H48.6618C48.3898 60.1178 47.8457 60.1178 47.3016 60.1178L47.5737 62.9741C47.7097 63.3822 47.8457 63.3822 48.2538 63.5182Z" fill="white"/>
<path d="M44.1732 61.4783C44.0372 61.0702 43.4931 60.6622 42.677 60.7982C42.4049 60.9342 41.9969 61.0702 42.1329 61.4783C42.1329 61.7503 42.405 61.8863 42.949 61.8863L43.9012 62.0223C44.1732 62.0223 44.7173 62.2943 44.8533 62.8384C44.9893 63.2464 44.7173 64.0625 43.4931 64.3345C42.949 64.4705 42.541 64.3345 42.4049 64.3345C42.2689 64.3345 42.2689 64.4705 42.2689 64.6066H42.1329L41.8609 63.2464H41.9969C42.2689 63.7905 42.677 64.1985 43.4931 64.0625C44.3092 63.9265 44.1732 63.3824 44.1732 63.2464C44.0372 62.8384 43.7651 62.8384 43.3571 62.7024L42.949 62.5664C41.7249 62.4303 41.7249 61.8863 41.5888 61.6143C41.4528 61.3422 41.5888 60.5262 42.677 60.2541C43.2211 60.1181 43.4931 60.2541 43.6291 60.2541C43.7651 60.2541 43.7651 60.1181 43.7651 59.9821H43.9012L44.1732 61.0702V61.4783Z" fill="white"/>
<path d="M41.0447 61.0702C40.7726 61.2062 40.6366 61.3422 40.6366 61.6143L41.0447 63.2464C41.1807 63.5185 41.1807 64.0625 40.9087 64.3345C40.6366 64.7426 40.0925 64.8786 39.8205 65.0146C39.5485 65.0146 39.0044 65.1506 38.4603 65.0146C38.1883 64.8786 37.9162 64.7426 37.7802 64.1985L37.3721 62.4303C37.2361 62.0223 37.1001 62.0223 36.6921 62.0223V61.8863L38.7323 61.3422V61.4783C38.3243 61.6143 38.1883 61.6143 38.1883 62.1583L38.5963 63.9265C38.7324 64.1985 38.8684 65.0146 39.6845 64.7426C40.7726 64.4706 40.6366 63.6545 40.5006 63.3824L40.3646 61.7503C40.2286 61.4783 40.2286 61.2062 39.6845 61.3422V61.2062L41.0447 61.0702Z" fill="white"/>
<path d="M37.5082 65.6947L35.4679 65.9667V65.8307C35.876 65.6947 36.012 65.6947 36.012 65.5587C36.012 65.4226 35.7399 65.0146 35.6039 64.8786L34.1077 65.0146C33.9717 65.4226 33.8357 65.6947 33.9717 65.6947C33.9717 65.8307 34.2437 65.8307 34.5158 65.8307V65.9667L33.1556 66.1027V65.9667C33.4276 65.8307 33.5636 65.6947 33.6996 65.2866L34.7878 62.1583H34.9238L36.6921 64.7426C37.1001 65.4226 37.2362 65.6947 37.5082 65.6947ZM35.4679 64.7426L34.6518 63.5184L34.2437 64.8786L35.4679 64.7426Z" fill="white"/>
<path d="M73.8255 57.9418C73.4175 56.9897 72.6013 56.3096 71.6492 56.0376C70.6971 55.7655 69.6089 56.0376 68.9288 56.7176C67.8406 57.6697 68.5207 59.1659 68.6568 60.39C68.6568 60.662 68.6568 60.798 68.3847 60.934C63.76 60.526 59.5434 59.4379 55.0548 58.8938C53.9666 58.7578 53.0145 58.7578 51.9263 58.4858L50.7021 58.3498C46.7576 58.4858 42.813 58.7578 39.1405 59.7099C38.3243 59.982 37.5082 59.982 36.6921 60.254C36.148 60.118 35.6039 60.526 35.0599 60.39L33.9717 60.662C33.8357 60.662 33.6997 60.662 33.5636 60.662C33.0196 59.3019 34.5158 58.6218 34.1077 57.2617C33.6997 56.5816 32.8835 55.9016 31.9314 55.9016C30.8432 55.7655 29.8911 56.3096 29.483 57.2617C28.8029 58.8938 29.6191 60.526 29.8911 62.0222C29.8911 62.5662 30.4352 63.1103 29.8911 63.5183C28.939 62.8382 27.5788 62.4302 26.3546 62.8382C25.9465 62.9742 25.2664 62.8382 25.1304 63.2463C26.4906 63.9263 28.2589 63.9263 29.7551 63.7903C29.8911 63.7903 30.0271 63.6543 30.1631 63.7903C30.2992 64.6064 30.0271 65.6945 30.5712 66.5106C31.1153 67.3267 32.0674 67.4627 33.0196 67.5987C35.876 67.4627 38.4604 66.6466 41.1808 65.9665C41.5888 65.9665 41.8609 65.6945 42.4049 65.6945C43.7651 65.4225 45.3974 65.1505 46.8936 65.1505C46.2135 65.9665 45.8054 66.9186 45.5334 68.0068C45.1253 68.8228 46.2135 68.9588 46.4855 69.5029C45.5334 69.7749 44.8533 70.455 43.9011 70.863C41.8609 70.863 40.2286 71.5431 38.3243 71.8151C38.3243 72.2232 39.0044 72.0872 39.0044 72.4952C38.8684 72.7672 38.5964 72.7672 38.4604 72.9032C38.4604 73.0392 38.4604 73.1753 38.5964 73.1753C38.7324 72.9032 39.1405 73.1753 39.4125 72.9032C40.0926 72.9032 40.6367 72.7672 41.1808 72.6312C41.7248 72.3592 42.2689 72.3592 42.813 71.9511C43.4931 71.8151 43.9011 71.2711 44.5812 71.1351C45.5334 71.1351 46.3495 70.863 47.3016 70.727V70.863C46.6215 72.0872 45.8054 73.1753 45.1253 74.3994C44.9893 74.6714 45.1253 74.8074 45.3974 74.9434C45.8054 75.0795 46.2135 74.9434 46.6215 74.8074C47.3016 73.7193 47.8457 72.6312 48.3898 71.4071C48.6618 70.319 49.3419 69.7749 50.1581 69.0949C50.2941 69.0949 50.4301 68.8228 50.5661 69.0949C49.886 69.7749 49.478 70.455 49.0699 71.2711C48.7979 72.2232 48.7979 73.3113 49.478 73.9913C49.886 74.2634 50.4301 74.2634 50.9742 74.2634C52.1984 73.5833 53.8306 74.6714 54.7827 73.4473C55.3268 73.3113 55.4628 73.9913 55.7349 74.3994C56.279 74.5354 56.823 75.0794 57.3671 74.6714C57.3671 74.2634 56.9591 73.9913 56.823 73.7193C56.415 73.0392 56.0069 72.4952 55.5989 71.9511C55.4628 71.5431 55.1908 71.2711 55.0548 70.727C55.5989 70.863 56.1429 71.2711 56.687 71.4071C57.2311 71.6791 57.9112 71.5431 58.3193 71.9511C58.7273 72.4952 59.4074 72.7672 59.9515 73.1753C60.7676 73.5833 61.5837 73.5833 62.3998 73.9913C62.6719 73.9913 63.216 74.2634 63.352 73.9913C63.216 73.8553 63.0799 73.7193 62.9439 73.5833C62.8079 73.1753 63.488 73.4473 63.76 73.0392C63.624 72.9032 63.488 72.7672 63.352 72.7672C62.9439 72.4952 61.7197 72.4952 61.4477 72.2232C61.0397 72.2232 60.7676 71.9511 60.3596 71.8151C58.4553 71.8151 57.5031 70.047 55.8709 69.5029C56.279 69.2309 56.687 68.9588 56.9591 68.4148C57.2311 68.0067 57.3671 67.1907 57.0951 66.7826C56.823 65.8305 55.5989 65.9665 54.7827 65.4225L54.9188 65.2865C56.1429 65.2865 57.2311 65.5585 58.3193 65.6945C61.3117 66.1026 64.1681 67.1907 67.2966 67.3267C69.0648 67.3267 71.2411 67.4627 72.0573 65.6945C72.1933 64.7424 72.4653 63.7903 72.6013 62.7022C73.0094 61.0701 73.9615 59.5739 73.8255 57.9418ZM39.8206 72.3592L39.4125 71.9511C39.6845 71.6791 40.0926 71.8151 40.5007 71.6791C41.3168 71.4071 42.2689 71.1351 43.221 71.2711C42.2689 71.9511 41.0447 72.0872 39.8206 72.3592ZM59.5434 71.8151C60.3595 72.0872 61.8558 72.4952 62.9439 72.6312C62.8079 73.0392 62.1278 72.6312 62.1278 73.3113C61.1757 72.9032 60.0875 72.7672 59.2714 71.9511C59.2714 71.9511 59.4074 71.8151 59.5434 71.8151ZM30.0271 58.3498C30.1632 57.8057 30.2992 57.1257 30.8432 56.7176C31.6594 56.3096 32.6115 56.4456 33.2916 56.8536C33.5636 56.9897 33.6997 57.1257 33.8357 57.3977C33.9717 57.9418 33.6997 58.4858 33.4276 58.7578H33.1556C33.1556 58.2138 33.1556 57.8057 33.2916 57.3977C33.2916 56.9897 32.8835 56.9897 32.7475 56.8536C32.2034 56.7176 31.7954 56.9897 31.3873 57.1257C31.1153 57.5337 30.8432 57.9417 30.9793 58.4858C31.2513 58.8938 30.9793 59.3019 31.1153 59.7099L30.8432 59.982C30.4352 59.5739 29.8911 59.1659 30.0271 58.3498ZM31.5233 59.3019C31.9314 59.7099 32.6115 59.4379 33.1556 59.5739C33.2916 59.982 33.2916 60.39 33.0196 60.662C32.4755 60.526 31.7954 60.662 31.5233 60.118C31.5233 59.8459 31.3873 59.5739 31.5233 59.3019ZM31.3873 58.2138C31.5233 57.9417 31.3873 57.5337 31.7954 57.5337C32.0674 57.5337 32.3395 57.5337 32.3395 57.6697C32.3395 58.0778 32.3395 58.4858 32.2034 58.7578C31.7954 58.8938 31.5233 58.6218 31.3873 58.2138ZM46.0775 68.4148C45.9414 67.3267 46.3495 66.3746 47.0296 65.5585C47.4377 65.4225 47.9817 65.4225 48.3898 65.5585C47.5737 65.8305 46.4855 65.9665 46.3495 67.0547C46.3495 67.4627 46.2135 67.7347 46.4855 68.0068C46.8936 68.5508 47.5737 68.4148 48.1178 68.8228C48.1178 68.9588 47.9817 69.2309 47.8457 69.2309C47.3016 68.9588 46.6215 68.8228 46.0775 68.4148ZM44.9893 70.591C45.8054 70.319 46.4855 69.6389 47.4377 69.9109C46.7576 70.319 45.8054 70.591 44.9893 70.591ZM47.9817 70.863C47.5737 71.8151 47.0296 72.9032 46.4855 73.8553C46.4855 73.9913 46.2135 73.9913 45.9414 74.1274C45.9414 73.7193 46.3495 73.3113 46.6215 72.9032C47.3016 72.0872 47.4377 71.1351 48.2538 70.319C48.3898 70.455 47.9817 70.591 47.9817 70.863ZM48.7979 69.0949C48.7979 68.9588 48.7979 68.9588 48.7979 69.0949V69.0949ZM48.5258 68.1428C47.9817 68.1428 47.4377 67.8707 47.0296 67.7347C46.7576 67.4627 47.0296 67.0547 47.0296 66.7826C47.4377 66.1026 48.6618 65.6945 49.3419 66.3746C49.2059 67.0547 48.9339 67.7347 48.5258 68.1428ZM49.2059 68.1428C49.3419 67.7347 49.478 67.1907 49.75 66.7826C49.614 67.3267 49.478 67.8707 49.2059 68.1428ZM49.478 65.5585C49.0699 65.4225 48.7979 65.0145 48.3898 65.0145C48.7979 64.8784 49.2059 64.8784 49.614 65.0145C49.886 65.2865 49.614 65.4225 49.478 65.5585ZM49.886 66.5106V66.1026V66.5106ZM49.886 68.0068C49.886 67.8707 49.886 67.7347 50.022 67.5987C50.1581 67.4627 50.2941 67.7347 50.4301 67.8707C50.2941 68.0067 50.1581 68.0068 49.886 68.0068ZM50.4301 66.1026C50.5661 65.6945 50.5661 65.2865 50.8382 64.8784C51.1102 64.8784 51.3822 64.8784 51.6543 65.0145C51.6543 65.6945 52.4704 66.5106 51.6543 67.0547C51.3822 67.1907 50.9742 67.4627 50.7021 67.1907C50.2941 66.7826 50.2941 66.5106 50.4301 66.1026ZM52.7424 65.1505C52.7424 64.8784 53.0145 65.1505 53.1505 65.0145H54.1026C53.5586 65.0145 53.0145 66.1026 52.7424 65.1505ZM54.2387 65.5585C53.8306 65.6945 53.5586 66.1026 53.1505 66.2386C53.4225 65.9665 53.9666 65.5585 54.2387 65.5585ZM53.0145 69.5029C53.0145 69.5029 53.0145 69.6389 53.0145 69.7749L52.3344 69.2309C52.6064 69.0949 52.8785 69.2309 53.0145 69.5029ZM52.1984 68.5508H52.4704H52.1984ZM51.7903 68.0068C51.9263 67.8707 52.0623 67.5987 52.3344 67.5987C52.3344 67.5987 52.3344 67.5987 52.3344 67.7347C52.0623 67.8707 51.9263 68.0068 51.7903 68.0068ZM50.9742 68.0068V67.8707C51.1102 67.8707 51.1102 67.8707 50.9742 68.0068ZM51.1102 69.2309C51.5183 68.8228 51.9263 69.5029 52.0623 69.7749C52.4704 70.455 53.6946 71.1351 53.2865 72.0872C52.7424 72.6312 51.7903 72.0872 51.1102 72.4952C50.7021 72.4952 50.1581 72.4952 50.022 72.2232C50.2941 71.1351 50.5661 70.0469 51.1102 69.2309ZM50.2941 69.7749L50.4301 69.5029C50.1581 70.319 49.75 70.999 49.3419 71.8151C49.2059 70.999 49.886 70.455 50.2941 69.7749ZM51.6543 73.5833C51.1102 73.5833 50.1581 73.9913 49.614 73.4473C49.614 73.1753 49.3419 73.0393 49.3419 72.7672C49.886 72.6312 50.2941 73.1753 50.7021 72.7672C51.3822 72.7672 52.1984 72.6312 52.8785 72.7672C53.2865 72.9032 53.6946 72.2232 53.8306 72.9032C53.6946 73.9913 52.3344 73.1753 51.6543 73.5833ZM53.6946 70.999C53.6946 71.2711 54.1026 71.4071 53.8306 71.6791C53.6946 71.5431 53.5586 71.2711 53.6946 70.999ZM54.5107 72.9032H54.3747C54.2387 72.7672 54.2387 72.4952 54.3747 72.2232C54.5107 72.4952 54.6467 72.6312 54.5107 72.9032ZM56.1429 73.5833C56.1429 73.7193 56.0069 73.7193 55.8709 73.5833C54.9188 72.3592 54.5107 71.1351 53.8306 69.7749H53.9666C54.7827 71.1351 55.3268 72.4952 56.1429 73.5833ZM57.2311 70.727C57.2311 70.727 57.2311 70.863 57.2311 70.727C56.279 70.863 55.5989 70.319 54.9188 69.9109V69.7749C55.7349 69.7749 56.551 70.319 57.2311 70.727ZM56.415 66.5106C56.823 66.6466 56.823 67.0547 56.823 67.3267C56.823 68.0068 56.415 68.6868 55.7349 68.8228C55.3268 68.9588 54.9188 69.0949 54.5107 68.9588C55.3268 68.9588 56.1429 68.6868 56.415 67.8707V66.5106ZM55.7349 66.3746C55.8709 66.7826 56.1429 67.1907 56.0069 67.7347C55.7349 68.2788 55.0548 68.2788 54.5107 68.4148C54.2387 68.4148 53.9666 68.4148 53.8306 68.1428C53.8306 68.0068 53.8306 67.8707 53.6946 67.8707C53.8306 67.4627 53.0145 67.0547 53.5586 66.6466C53.9666 66.3746 55.1908 65.2865 55.7349 66.3746ZM71.6492 64.0624C71.3772 64.3344 71.6492 64.8784 71.2411 65.1505C71.2411 65.6945 70.8331 65.9665 70.425 66.2386C66.6165 67.0547 62.9439 65.8305 59.4074 65.1505C54.3747 64.0624 48.3898 63.7903 43.221 64.8784C40.7727 65.2865 38.4604 65.8305 36.148 66.5106C34.6518 66.6466 33.1556 66.9186 31.7954 66.5106C30.7072 65.9665 31.1153 64.4704 30.8432 63.5183C30.8432 62.7022 30.5712 62.1582 30.5712 61.3421C30.4352 61.0701 30.4352 60.798 30.4352 60.526C30.8432 60.526 31.3873 60.934 31.9314 61.0701C34.5158 61.6141 36.9641 60.662 39.4125 60.254C41.7248 59.7099 44.1732 59.3019 46.6215 59.1659C49.478 59.1659 52.3344 59.0299 55.0548 59.4379C55.8709 59.4379 56.687 59.7099 57.5031 59.7099C59.2714 59.982 60.9036 60.39 62.6719 60.526C62.9439 60.662 63.352 60.662 63.624 60.662C66.4804 61.0701 69.6089 61.8861 72.3293 60.662C72.3293 61.8861 71.9212 62.9743 71.6492 64.0624ZM70.8331 60.254C70.8331 60.798 70.425 60.662 70.153 60.798H69.3369C69.2008 60.526 69.2008 60.118 69.2008 59.8459C69.7449 59.982 70.289 59.982 70.8331 60.254ZM70.425 59.4379C70.8331 59.0299 70.289 57.1257 71.2411 58.3498C71.2411 58.6218 71.2411 59.0299 70.9691 59.1659C70.9691 59.3019 70.6971 59.5739 70.425 59.4379ZM73.0094 59.1659C72.7374 59.7099 72.3293 60.118 71.6492 60.254C71.6492 59.4379 72.3293 58.8938 72.0573 58.0778C71.6492 57.5337 70.8331 57.2617 70.017 57.3977C69.7449 57.5337 69.8809 57.9417 69.7449 58.2138L69.6089 59.3019C68.9288 59.3019 68.9288 58.7578 68.7928 58.3498C68.7928 57.6697 69.0648 56.9897 69.7449 56.7176C70.289 56.4456 71.1051 56.4456 71.5132 56.7176C71.9212 56.8536 72.3293 56.9897 72.6013 57.3977C73.2814 57.8057 73.1454 58.4858 73.0094 59.1659Z" fill="white"/>
</svg>
