<svg width="107" height="48" viewBox="0 0 107 48" fill="none" xmlns="http://www.w3.org/2000/svg">
<path d="M1.49742 0.680869C2.31422 0.680869 2.45035 0.816993 2.58648 0.953119L5.30913 5.03689C6.39819 6.80653 6.80659 7.21491 7.07886 8.03166C7.07886 7.35103 6.94272 5.5814 6.94272 4.49239V0.816995C6.94272 0.680869 7.07885 0.544742 7.89564 0.544742H8.03178C8.84858 0.544742 8.9847 0.544743 8.9847 0.816995V11.2987C8.9847 11.4348 8.84858 11.5709 8.16792 11.5709H8.03178C7.35112 11.5709 7.07885 11.5709 6.94272 11.2987L4.22007 7.21491C2.99488 5.44527 2.58648 4.76464 2.45034 4.08401C2.58648 4.76464 2.58648 6.53428 2.58648 7.62329V11.2987C2.58648 11.4348 2.45036 11.5709 1.63356 11.5709H1.49742C0.680626 11.5709 0.544498 11.5709 0.544498 11.2987V0.816995C0.544498 0.680869 0.544494 0.680869 1.49742 0.680869Z" fill="white"/>
<path d="M14.1577 0.680869C16.0636 0.680869 17.4249 1.08925 18.3778 2.04213C19.1946 2.85888 19.7391 4.35627 19.7391 6.1259C19.7391 7.89554 19.1946 9.39292 18.1055 10.4819C17.1526 11.2987 15.9274 11.5709 14.1577 11.5709H11.8435C11.2989 11.5709 11.1628 11.5709 11.1628 11.2987V0.816995C11.1628 0.680869 11.2989 0.544742 11.8435 0.544742H14.1577V0.680869ZM13.4771 9.8013H14.2939C15.1107 9.8013 16.0636 9.66517 16.6081 9.12067C17.2888 8.57617 17.561 7.48716 17.561 6.1259C17.561 4.90077 17.2888 3.94789 16.8804 3.40339C16.3358 2.72276 15.519 2.4505 14.43 2.4505H13.6132V9.8013H13.4771Z" fill="white"/>
<path d="M25.1844 0.680683C25.3206 0.680683 25.3206 0.816809 25.3206 1.36131V1.49744C25.3206 2.17807 25.3206 2.17807 25.1844 2.17807H24.2315V9.93724H25.1844C25.3206 9.93724 25.3206 10.0734 25.3206 10.6179V10.754C25.3206 11.4346 25.3206 11.4346 25.1844 11.4346H20.9643C20.8282 11.4346 20.8282 11.2985 20.8282 10.754V10.6179C20.8282 9.93724 20.8282 9.93724 20.9643 9.93724H21.9173V2.17807H20.9643C20.8282 2.17807 20.8282 2.04194 20.8282 1.49744V1.36131C20.8282 0.680683 20.8282 0.680683 20.9643 0.680683H25.1844Z" fill="white"/>
<path d="M33.2162 2.4502C32.9439 2.9947 32.8078 2.9947 32.6717 2.85858C31.991 2.4502 31.4465 2.17795 30.7658 2.17795C29.949 2.17795 29.4045 2.72245 29.4045 3.40308C29.4045 4.21984 30.2213 4.49209 31.0381 5.03659C32.3994 5.71722 33.7607 6.39785 33.7607 8.30361C33.7607 10.2094 32.5355 11.5706 30.0852 11.5706C28.7239 11.5706 27.4987 11.1623 26.818 10.4816C26.6819 10.3455 26.5458 10.2094 26.818 9.66487L26.9541 9.25649C27.2264 8.71199 27.3626 8.71199 27.4987 8.84811C28.1793 9.39262 28.9961 9.66487 29.8129 9.66487C30.7658 9.66487 31.4465 9.25649 31.4465 8.43974C31.4465 7.48685 30.6297 7.07848 29.6768 6.6701C28.4516 5.98947 26.9541 5.30884 26.9541 3.53921C26.9541 1.49732 28.5877 0.408312 30.4936 0.408312C31.4465 0.408312 32.5356 0.680564 33.2162 1.22507C33.4885 1.36119 33.3523 1.49732 33.2162 2.04182V2.4502Z" fill="white"/>
<path d="M47.374 12.7958C47.1017 13.068 46.9656 13.068 46.8295 12.9319C46.4211 12.5235 45.8766 11.979 45.332 11.2984C44.7875 11.4345 44.243 11.5706 43.6984 11.5706C41.1119 11.5706 39.3422 9.66487 39.3422 6.1256C39.3422 2.58633 41.2481 0.408312 44.1068 0.408312C46.6933 0.408312 48.4631 2.17795 48.4631 5.85335C48.4631 8.16748 47.6463 9.80099 46.4211 10.7539C46.8295 11.2984 47.2379 11.8429 47.6463 12.1151C47.7824 12.2513 47.6463 12.3874 47.5101 12.6596L47.374 12.7958ZM44.6514 8.43974C44.9236 8.30361 45.0598 8.30361 45.1959 8.43974C45.332 8.84811 45.6043 9.25649 45.8766 9.66487C46.6934 8.98424 47.1017 7.62298 47.1017 5.98947C47.1017 3.26696 46.0127 1.76957 44.1068 1.76957C42.0649 1.76957 40.8397 3.40308 40.8397 6.26172C40.8397 8.98424 41.9287 10.4816 43.8346 10.4816C44.1068 10.4816 44.5152 10.4816 44.7875 10.3455C44.5152 9.93712 44.243 9.39262 43.9707 8.84811C43.9707 8.71199 44.1068 8.57586 44.3791 8.57586L44.6514 8.43974Z" fill="white"/>
<path d="M51.1857 3.53936C51.7303 3.53936 51.8664 3.53936 51.8664 3.67548V7.62313C51.8664 8.84827 51.8664 9.39277 52.2748 9.80115C52.5471 10.0734 52.9555 10.3457 53.6361 10.3457C54.1807 10.3457 54.8613 10.2095 55.2697 9.80115C55.542 9.52889 55.8143 8.98439 55.8143 7.35088V3.67548C55.8143 3.53936 55.9504 3.53936 56.3588 3.53936H56.4949C57.0394 3.53936 57.1756 3.53936 57.1756 3.67548V8.84827C57.1756 9.93727 57.1756 10.8902 57.1756 11.2985C57.1756 11.4347 57.1756 11.4347 56.4949 11.4347C55.9504 11.4347 55.8143 11.4347 55.8143 11.2985V10.6179C55.2697 11.2985 54.4529 11.5708 53.3639 11.5708C52.5471 11.5708 51.8664 11.2985 51.3219 10.754C50.7774 10.2095 50.6412 9.39277 50.6412 8.16764V3.53936C50.5051 3.67548 50.5051 3.53936 51.1857 3.53936Z" fill="white"/>
<path d="M65.2073 3.53936C65.7518 3.53936 65.7518 3.53936 65.7518 3.67548C65.7518 4.08386 65.7518 5.03674 65.7518 5.98962V8.16764C65.7518 9.5289 65.7518 10.4818 65.888 11.4347C65.888 11.5708 65.7518 11.5708 65.3434 11.5708C64.9351 11.5708 64.7989 11.5708 64.7989 11.4347L64.6628 10.754C64.1183 11.2985 63.3015 11.843 62.3485 11.843C60.1704 11.843 59.0814 10.0734 59.0814 7.89538C59.0814 5.30899 60.5788 3.67548 62.6208 3.67548C63.5737 3.67548 64.2544 4.08386 64.6628 4.62836L64.7989 3.94773C64.6628 3.53936 64.6628 3.53936 65.2073 3.53936ZM64.3905 5.71737C63.9821 5.17287 63.3015 4.62836 62.6208 4.62836C61.2595 4.62836 60.4427 5.8535 60.4427 7.62313C60.4427 8.98439 60.9872 10.4818 62.4847 10.4818C63.0292 10.4818 63.5737 10.3456 63.9821 9.93727C64.2544 9.52889 64.3905 9.12052 64.3905 7.89538V5.71737Z" fill="white"/>
<path d="M68.7469 0C69.2914 0 69.2914 5.1725e-07 69.4276 0.136126C69.5637 0.544504 69.5637 2.31414 69.5637 4.62828V9.66494C69.5637 10.2094 69.6998 10.4817 70.1082 10.4817H70.2443C70.3805 10.4817 70.3805 10.4817 70.3805 10.8901C70.3805 11.2984 70.3805 11.2984 70.2443 11.4346C69.9721 11.5707 69.6998 11.5707 69.5637 11.5707C69.1553 11.5707 68.7469 11.4346 68.4746 11.0262C68.3385 10.7539 68.2024 10.2094 68.2024 9.39268V4.35603C68.2024 2.72252 68.2024 0.816753 68.0662 0.27225C67.9301 0.136124 68.2024 0 68.7469 0Z" fill="white"/>
<path d="M72.6946 0.13643C73.2391 0.13643 73.6475 0.544806 73.6475 1.08931C73.6475 1.63381 73.2391 2.04219 72.6946 2.04219C72.1501 2.04219 71.7417 1.63381 71.7417 1.08931C71.7417 0.544806 72.1501 0.13643 72.6946 0.13643ZM72.8307 3.53958C73.3753 3.53958 73.5114 3.6757 73.5114 3.6757V11.2988C73.5114 11.4349 73.5114 11.4349 72.8307 11.4349H72.6946C72.1501 11.4349 72.0139 11.4349 72.0139 11.2988V3.6757C72.0139 3.6757 72.1501 3.53958 72.8307 3.53958Z" fill="white"/>
<path d="M76.9148 1.36137C77.4593 1.36137 77.5954 1.49749 77.5954 1.49749V3.53938H79.5013C79.6374 3.53938 79.6374 3.67551 79.6374 3.94776V4.08388C79.6374 4.49226 79.6374 4.62839 79.5013 4.62839H77.5954V9.12054C77.5954 9.66504 77.5954 10.0734 77.8677 10.3457C78.0038 10.4818 78.2761 10.6179 78.6845 10.6179C79.0929 10.6179 79.3651 10.4818 79.7735 10.4818C79.9097 10.4818 79.9097 10.4818 80.0458 10.754V10.8902C80.1819 11.1624 80.1819 11.2986 80.0458 11.4347C79.6374 11.7069 78.9568 11.8431 78.4122 11.8431C77.7316 11.8431 77.187 11.7069 76.9148 11.2986C76.5064 10.8902 76.3702 10.3457 76.3702 9.25666V4.62839H75.4173C75.2812 4.62839 75.2812 4.49226 75.2812 4.08388V3.94776C75.2812 3.53938 75.2812 3.53938 75.4173 3.53938H76.3702V1.49749C76.098 1.36137 76.098 1.36137 76.9148 1.36137Z" fill="white"/>
<path d="M83.7212 7.48701C84.1296 8.57601 84.4019 9.25664 84.538 10.0734C84.6741 9.39277 84.9464 8.43989 85.3548 7.62313L86.7161 3.81161C86.7161 3.67548 86.9884 3.67548 87.3968 3.67548C87.9413 3.67548 88.2135 3.67548 88.0774 3.94773L85.2186 11.843C84.8102 12.932 84.4019 13.7488 83.9935 14.2933C83.3128 14.9739 82.6322 15.2462 81.6792 15.2462C81.2708 15.2462 80.7263 15.1101 80.454 14.9739C80.3179 14.8378 80.3179 14.7017 80.454 14.4294V14.2933C80.5902 13.8849 80.5902 13.8849 80.7263 13.8849C80.9986 14.021 81.2708 14.021 81.5431 14.021C82.496 14.021 83.1767 13.4765 83.7212 11.7069L80.7263 3.81161C80.5902 3.67548 80.8624 3.53936 81.407 3.53936C81.9515 3.53936 82.0876 3.53936 82.2238 3.67548L83.7212 7.48701Z" fill="white"/>
<path d="M6.2621 21.3716C6.80663 21.3716 6.80664 21.3716 6.80664 21.5077C6.80664 21.9161 6.80664 22.869 6.80664 23.8219V25.9999C6.80664 27.3611 6.80663 28.314 6.94276 29.2669C6.94276 29.403 6.80664 29.403 6.39824 29.403C5.98985 29.403 5.8537 29.403 5.8537 29.2669L5.71759 28.5863C5.17306 29.1308 4.35627 29.6753 3.40335 29.6753C1.22525 29.6753 0.136186 27.9056 0.136186 25.7276C0.136186 23.1412 1.63364 21.5077 3.67561 21.5077C4.62853 21.5077 5.30919 21.9161 5.71759 22.4606L5.8537 21.78C5.71757 21.3716 5.71758 21.3716 6.2621 21.3716ZM5.44533 23.4135C5.03693 22.869 4.35627 22.3245 3.67561 22.3245C2.3143 22.3245 1.4975 23.5496 1.4975 25.3193C1.4975 26.6805 2.04203 28.1779 3.53947 28.1779C4.084 28.1779 4.62853 28.0418 5.03693 27.6334C5.30919 27.225 5.44533 26.8166 5.44533 25.5915V23.4135Z" fill="white"/>
<path d="M9.93769 21.3718C10.4822 21.3718 10.6183 21.3718 10.6183 21.5079V22.1885C11.1629 21.5079 12.1158 21.2357 13.0687 21.2357C13.8855 21.2357 14.7023 21.5079 15.1107 22.0524C15.6553 22.5969 15.9275 23.4137 15.9275 24.6388V29.131C15.9275 29.2671 15.9275 29.2671 15.2469 29.2671H15.1107C14.5662 29.2671 14.4301 29.2671 14.4301 29.131V25.1833C14.4301 23.9582 14.4301 23.4137 14.0217 23.0053C13.7494 22.5969 13.2049 22.4608 12.5242 22.4608C11.9797 22.4608 11.299 22.5969 10.8906 23.0053C10.7545 23.1414 10.4822 23.4137 10.4822 24.0943C10.4822 24.5027 10.4822 25.3194 10.4822 26.1362V29.131C10.4822 29.2671 10.4822 29.2671 9.80157 29.2671H9.66543C9.1209 29.2671 8.98476 29.2671 8.98476 29.131V23.9582C8.98476 22.8692 8.98476 21.9163 8.98476 21.5079C9.25703 21.3718 9.25703 21.3718 9.93769 21.3718Z" fill="white"/>
<path d="M23.8232 17.8327C24.3677 17.8327 24.5038 17.8327 24.5038 17.9689V27.3615C24.5038 28.1783 24.6399 28.1783 25.0483 28.1783C25.1845 28.1783 25.1845 28.3144 25.1845 28.5867V28.7228C25.1845 29.1312 25.1845 29.1312 25.0483 29.2673C24.7761 29.4034 24.6399 29.4034 24.3677 29.4034C23.9593 29.4034 23.5509 29.1312 23.2786 28.5867C22.8702 29.1312 22.0534 29.5396 20.9644 29.5396C18.9224 29.5396 17.6972 28.0422 17.6972 25.5919C17.6972 23.2778 18.9224 21.2359 21.3728 21.2359C22.0534 21.2359 22.7341 21.5081 23.1425 21.7804V18.105C23.1425 17.9689 23.2786 17.8327 23.8232 17.8327ZM23.1425 23.0055C22.7341 22.7333 22.0534 22.461 21.5089 22.461C20.1476 22.461 19.1947 23.6861 19.1947 25.4558C19.1947 27.3615 20.1476 28.3144 21.2366 28.3144C21.7812 28.3144 22.3257 28.1783 22.7341 27.7699C23.1425 27.3615 23.1425 26.9532 23.1425 25.5919V23.0055Z" fill="white"/>
<path d="M36.4835 19.7382C36.3473 20.0105 36.2112 20.1466 36.0751 20.0105C35.5306 19.7382 34.986 19.466 34.1692 19.466C32.944 19.466 32.2634 20.2827 32.2634 21.0995C32.2634 23.2775 37.028 23.0053 37.028 26.4084C37.028 28.3142 35.8028 29.5393 33.4886 29.5393C32.2634 29.5393 31.0382 29.1309 30.4936 28.7226C30.3575 28.5864 30.3575 28.4503 30.6298 28.0419L30.7659 27.9058C30.902 27.6335 31.0382 27.4974 31.1743 27.6335C31.855 28.0419 32.8079 28.3142 33.4886 28.3142C34.7138 28.3142 35.6667 27.7697 35.6667 26.5445C35.6667 23.9581 30.902 24.5026 30.902 21.3718C30.902 19.466 32.3995 18.377 34.0331 18.377C34.8499 18.377 36.0751 18.6492 36.6196 19.1937C36.7558 19.3299 36.6196 19.466 36.4835 19.7382Z" fill="white"/>
<path d="M44.7875 21.3716C45.332 21.3716 45.332 21.3716 45.332 21.5077C45.332 21.9161 45.332 22.869 45.332 23.8219V25.9999C45.332 27.3611 45.332 28.314 45.4682 29.2669C45.4682 29.403 45.332 29.403 44.9236 29.403C44.5152 29.403 44.3791 29.403 44.3791 29.2669L44.243 28.5863C43.6985 29.1308 42.8816 29.6753 41.9287 29.6753C39.7506 29.6753 38.6615 27.9056 38.6615 25.7276C38.6615 23.1412 40.159 21.5077 42.201 21.5077C43.1539 21.5077 43.8346 21.9161 44.243 22.4606L44.3791 21.78C44.243 21.3716 44.3791 21.3716 44.7875 21.3716ZM43.9707 23.4135C43.5623 22.869 42.8817 22.3245 42.201 22.3245C40.8397 22.3245 40.0229 23.5496 40.0229 25.3193C40.0229 26.6805 40.5674 28.1779 42.0649 28.1779C42.6094 28.1779 43.1539 28.0418 43.5623 27.6334C43.8346 27.225 43.9707 26.8166 43.9707 25.5915V23.4135Z" fill="white"/>
<path d="M48.1909 21.3717V20.9633C48.1909 18.7853 49.1438 17.6963 50.9135 17.6963C51.458 17.6963 52.0026 17.8324 52.411 17.9686C52.5471 17.9686 52.5471 18.1047 52.411 18.5131C52.2749 18.9214 52.2748 19.0576 52.1387 18.9214C51.7303 18.7853 51.3219 18.6492 50.9135 18.6492C49.8245 18.6492 49.4161 19.4659 49.4161 20.8272V21.2356H51.1858C51.3219 21.2356 51.3219 21.3717 51.3219 21.7801V21.9162C51.3219 22.3246 51.3219 22.3246 51.1858 22.3246H49.5522V29.1309C49.5522 29.267 49.5522 29.267 48.8715 29.267H48.7354C48.1909 29.267 48.0547 29.267 48.0547 29.1309V22.4607H47.1018C46.9657 22.4607 46.9657 22.3246 46.9657 22.0523V21.9162C46.9657 21.5078 46.9657 21.3717 47.1018 21.3717H48.1909Z" fill="white"/>
<path d="M53.7722 25.8641C53.7722 26.6809 54.0444 27.3615 54.589 27.7699C54.9974 28.1783 55.5419 28.3144 56.3587 28.3144C57.0394 28.3144 57.5839 28.1783 58.4007 27.7699C58.5368 27.7699 58.673 27.6338 58.8091 28.0421L58.9452 28.1783C59.0813 28.5866 59.0813 28.7228 58.9452 28.7228C58.1284 29.1311 57.1755 29.4034 56.2226 29.4034C53.7722 29.4034 52.547 27.906 52.547 25.4557C52.547 22.8694 53.9083 21.0997 56.2226 21.0997C57.5839 21.0997 58.5368 21.7803 58.9452 22.7332C59.3536 23.4139 59.4898 24.2306 59.4898 25.1835C59.4898 25.5919 59.4897 25.728 59.3536 25.728H53.7722V25.8641ZM57.8562 24.7751C57.8562 23.6861 57.3116 22.461 55.9503 22.461C54.8612 22.461 54.0444 23.1416 53.7722 24.7751H57.8562Z" fill="white"/>
<path d="M66.8409 21.372C67.3854 21.372 67.3854 21.372 67.3854 21.5081C67.3854 22.1887 67.5216 24.3667 67.5216 25.3196V27.7699C67.5216 29.1311 67.3854 29.9479 67.2493 30.6285C66.8409 32.1259 65.4796 32.8065 63.846 32.8065C63.0292 32.8065 62.0763 32.6704 61.5317 32.3982C61.3956 32.3982 61.3956 32.262 61.5317 31.8537V31.7175C61.6679 31.3092 61.6679 31.3092 61.804 31.3092C61.9401 31.3092 62.0763 31.4453 62.2124 31.4453C62.6208 31.5814 63.0292 31.7175 63.7098 31.7175C64.935 31.7175 65.7518 31.173 66.0241 29.9479C66.1602 29.5395 66.1602 28.8589 66.1602 28.4505C65.6157 28.995 64.6628 29.2673 63.9821 29.2673C61.804 29.2673 60.7149 27.6338 60.7149 25.3196C60.7149 22.7332 62.2124 21.0997 64.1182 21.0997C64.935 21.0997 65.7518 21.5081 66.0241 22.0526V21.372C66.1602 21.372 66.2964 21.372 66.8409 21.372ZM66.1602 25.0474C66.1602 24.0945 66.1602 23.6861 65.888 23.2777C65.6157 22.8694 65.0712 22.461 64.2544 22.461C62.8931 22.461 62.0763 23.55 62.0763 25.3196C62.0763 27.0893 62.7569 28.0421 64.1182 28.0421C64.935 28.0421 65.6157 27.6338 66.0241 27.0893V25.0474H66.1602Z" fill="white"/>
<path d="M70.5165 21.3716C71.061 21.3716 71.1971 21.3716 71.1971 21.5077V25.4554C71.1971 26.6805 71.1971 27.225 71.6055 27.6334C71.8778 27.9056 72.2862 28.1779 72.9668 28.1779C73.5114 28.1779 74.192 28.0418 74.6004 27.6334C74.8727 27.3611 75.145 26.8166 75.145 25.1831V21.5077C75.145 21.3716 75.2811 21.3716 75.6895 21.3716H75.8256C76.3702 21.3716 76.5063 21.3716 76.5063 21.5077V26.6805C76.5063 27.7695 76.5063 28.7224 76.5063 29.1308C76.5063 29.2669 76.5063 29.2669 75.8256 29.2669C75.2811 29.2669 75.145 29.2669 75.145 29.1308V28.4501C74.6004 29.1308 73.7836 29.403 72.6946 29.403C71.8778 29.403 71.1971 29.1308 70.6526 28.5863C70.1081 28.0418 69.9719 27.225 69.9719 25.9999V21.3716C69.6997 21.5077 69.8358 21.3716 70.5165 21.3716Z" fill="white"/>
<path d="M84.402 21.3716C84.9465 21.3716 84.9465 21.3716 84.9465 21.5077C84.9465 21.9161 84.9465 22.869 84.9465 23.8219V25.9999C84.9465 27.3611 84.9465 28.314 85.0826 29.2669C85.0826 29.403 84.9465 29.403 84.5381 29.403C84.1297 29.403 83.9936 29.403 83.9936 29.2669L83.8574 28.5863C83.3129 29.1308 82.4961 29.6753 81.5432 29.6753C79.3651 29.6753 78.276 27.9056 78.276 25.7276C78.276 23.1412 79.7735 21.5077 81.8154 21.5077C82.7684 21.5077 83.449 21.9161 83.8574 22.4606L83.9936 21.78C83.8574 21.3716 83.9936 21.3716 84.402 21.3716ZM83.7213 23.4135C83.3129 22.869 82.6322 22.3245 81.9516 22.3245C80.5903 22.3245 79.7735 23.5496 79.7735 25.3193C79.7735 26.6805 80.318 28.1779 81.8154 28.1779C82.36 28.1779 82.9045 28.0418 83.3129 27.6334C83.5852 27.225 83.7213 26.8166 83.7213 25.5915V23.4135Z" fill="white"/>
<path d="M88.0775 21.3718C88.6221 21.3718 88.7582 21.3718 88.7582 21.5079V23.0053C89.3027 21.7802 90.1195 21.2357 90.9363 21.2357C91.0724 21.2357 91.2086 21.2357 91.2086 21.2357C91.3447 21.2357 91.3447 21.3718 91.3447 21.644V21.9163C91.3447 22.3247 91.3447 22.4608 91.2086 22.4608C90.1195 22.4608 89.575 23.1414 89.1666 23.822C88.8943 24.2304 88.8943 24.6388 88.7582 25.1833C88.7582 25.5917 88.7582 26.5446 88.7582 27.3613V29.131C88.7582 29.2671 88.7582 29.2671 88.0775 29.2671H87.9414C87.3969 29.2671 87.2607 29.2671 87.2607 29.131V23.9582C87.2607 22.8692 87.2607 21.9163 87.2607 21.5079C87.3969 21.3718 87.3969 21.3718 88.0775 21.3718Z" fill="white"/>
<path d="M98.5597 17.8327C99.1042 17.8327 99.2403 17.8327 99.2403 17.9689V27.3615C99.2403 28.1783 99.3764 28.1783 99.7848 28.1783C99.921 28.1783 99.921 28.3144 99.921 28.5867V28.7228C99.921 29.1312 99.921 29.1312 99.7848 29.2673C99.5126 29.4034 99.3764 29.4034 99.1042 29.4034C98.6958 29.4034 98.2874 29.1312 98.0151 28.5867C97.6067 29.1312 96.7899 29.5396 95.7009 29.5396C93.6589 29.5396 92.4337 28.0422 92.4337 25.5919C92.4337 23.2778 93.6589 21.2359 96.1093 21.2359C96.79 21.2359 97.4706 21.5081 97.879 21.7804V18.105C97.7429 17.9689 97.879 17.8327 98.5597 17.8327ZM97.7429 23.0055C97.3345 22.7333 96.6538 22.461 96.1093 22.461C94.748 22.461 93.795 23.6861 93.795 25.4558C93.795 27.3615 94.748 28.3144 95.837 28.3144C96.3815 28.3144 96.9261 28.1783 97.3345 27.7699C97.7429 27.3615 97.7429 26.9532 97.7429 25.5919V23.0055Z" fill="white"/>
<path d="M106.455 22.7329C106.183 23.1413 106.047 23.1413 106.047 23.0052C105.503 22.5968 104.958 22.3245 104.277 22.3245C103.597 22.3245 102.78 22.5968 102.78 23.4136C102.78 24.2303 103.597 24.5026 104.413 24.6387C105.639 24.9109 107 25.4554 107 26.9528C107 28.5863 105.639 29.4031 104.005 29.4031C103.052 29.4031 102.099 28.9947 101.555 28.5863C101.419 28.4502 101.419 28.4502 101.555 28.0418L101.691 27.9057C101.827 27.4973 101.963 27.4973 102.099 27.6335C102.644 27.9057 103.461 28.178 104.005 28.178C104.686 28.178 105.639 27.7696 105.639 26.9528C105.639 26.1361 104.686 25.8638 103.869 25.7277C103.052 25.5916 102.508 25.3193 102.099 24.9109C101.691 24.5026 101.555 24.0942 101.555 23.4136C101.555 21.9162 102.78 20.9633 104.413 20.9633C105.366 20.9633 106.183 21.2355 106.864 21.78C107 21.9162 107 22.0523 106.864 22.3245L106.455 22.7329Z" fill="white"/>
<path d="M7.35114 38.1157C7.07888 38.6602 6.94275 38.6602 6.80662 38.524C6.12596 38.1157 5.58142 37.8434 4.90075 37.8434C3.26716 37.8434 2.17811 39.2047 2.17811 41.6549C2.17811 43.9691 2.9949 45.3303 4.90075 45.3303C5.58142 45.3303 6.26208 45.1942 6.94274 44.7858C7.215 44.6497 7.21502 44.7858 7.48728 45.1942L7.6234 45.6026C7.89567 46.1471 7.89567 46.1471 7.6234 46.4193C6.94274 46.8277 5.58142 47.2361 4.62849 47.2361C1.63358 47.2361 0 45.1942 0 41.7911C0 38.3879 1.76972 36.0738 4.76463 36.0738C5.85369 36.0738 6.80661 36.346 7.6234 37.0267C7.89567 37.1628 7.89567 37.2989 7.6234 37.8434L7.35114 38.1157Z" fill="white"/>
<path d="M16.3359 43.016C16.3359 45.7386 14.9746 47.3721 12.3881 47.3721C10.0738 47.3721 8.71252 46.0108 8.71252 43.4244C8.71252 40.7019 10.0738 39.0684 12.6603 39.0684C14.8384 39.0684 16.3359 40.4297 16.3359 43.016ZM10.8906 43.1522C10.8906 44.6496 11.4352 45.4663 12.3881 45.4663C13.6133 45.4663 14.1578 44.5134 14.1578 43.016C14.1578 41.5187 13.6133 40.7019 12.6603 40.7019C11.4351 40.838 10.8906 41.6548 10.8906 43.1522Z" fill="white"/>
<path d="M18.9225 39.2045C19.6031 39.2045 19.7393 39.2045 19.8754 39.3406C19.8754 39.4768 20.0115 39.749 20.0115 40.0213C20.5561 39.4768 21.2367 39.0684 22.1896 39.0684C23.1426 39.0684 24.0955 39.4768 24.5039 40.2935C25.0484 39.4768 26.0013 39.0684 26.9543 39.0684C27.7711 39.0684 28.5878 39.3406 28.9962 39.8852C29.5408 40.4297 29.6769 41.1103 29.6769 42.3354V46.9637C29.6769 47.0998 29.5408 47.2359 28.724 47.2359H28.5879C27.6349 47.2359 27.6349 47.2359 27.6349 46.9637V42.8799C27.6349 41.7909 27.6349 41.5187 27.3627 41.2464C27.2265 40.9742 26.8181 40.838 26.4097 40.838C26.1375 40.838 25.7291 40.838 25.4568 41.1103C25.1846 41.2464 25.0484 41.5187 25.0484 41.927C25.0484 42.3354 25.0484 42.8799 25.0484 43.4244V46.9637C25.0484 47.0998 24.9123 47.2359 24.0955 47.2359H23.6871C22.7342 47.2359 22.7342 47.2359 22.7342 46.9637V42.8799C22.7342 41.7909 22.7342 41.5187 22.4619 41.2464C22.3258 40.9742 21.9174 40.838 21.509 40.838C21.2367 40.838 20.8283 40.838 20.5561 41.1103C20.2838 41.2464 20.1477 41.5187 20.1477 41.927C20.1477 42.3354 20.1477 42.8799 20.1477 43.4244V46.9637C20.1477 47.0998 20.0115 47.2359 19.1947 47.2359H19.0586C18.1057 47.2359 18.1057 47.2359 18.1057 46.9637V42.7438C18.1057 41.5187 18.1057 40.2935 17.9696 39.4768C17.8334 39.2045 17.9696 39.2045 18.9225 39.2045Z" fill="white"/>
<path d="M32.3996 39.2045C33.0803 39.2045 33.2164 39.2045 33.3525 39.3406C33.3525 39.4768 33.4887 39.749 33.4887 40.0213C34.0332 39.4768 34.7139 39.0684 35.6668 39.0684C36.6197 39.0684 37.5726 39.4768 37.981 40.2935C38.5256 39.4768 39.4785 39.0684 40.4314 39.0684C41.2482 39.0684 42.065 39.3406 42.4734 39.8852C43.0179 40.4297 43.1541 41.1103 43.1541 42.3354V46.9637C43.1541 47.0998 43.0179 47.2359 42.2011 47.2359H42.065C41.1121 47.2359 41.1121 47.2359 41.1121 46.9637V42.8799C41.1121 41.7909 41.1121 41.5187 40.8398 41.2464C40.7037 40.9742 40.2953 40.838 39.8869 40.838C39.6146 40.838 39.2062 40.838 38.9339 41.1103C38.6617 41.2464 38.5255 41.5187 38.5255 41.927C38.5255 42.3354 38.5255 42.8799 38.5255 43.4244V46.9637C38.5255 47.0998 38.3894 47.2359 37.5726 47.2359H37.4365C36.4836 47.2359 36.4836 47.2359 36.4836 46.9637V42.8799C36.4836 41.7909 36.4836 41.5187 36.2113 41.2464C36.0752 40.9742 35.6668 40.838 35.2584 40.838C34.9861 40.838 34.5777 40.838 34.3055 41.1103C34.0332 41.2464 33.8971 41.5187 33.8971 41.927C33.8971 42.3354 33.8971 42.8799 33.8971 43.4244V46.9637C33.8971 47.0998 33.7609 47.2359 32.9441 47.2359H32.808C31.8551 47.2359 31.8551 47.2359 31.8551 46.9637V42.7438C31.8551 41.5187 31.8551 40.2935 31.7189 39.4768C31.4467 39.2045 31.4467 39.2045 32.3996 39.2045Z" fill="white"/>
<path d="M46.0128 35.529C46.6934 35.529 47.238 36.0735 47.238 36.7542C47.238 37.4348 46.6934 37.9793 46.0128 37.9793C45.3321 37.9793 44.7876 37.4348 44.7876 36.7542C44.7876 36.0735 45.3321 35.529 46.0128 35.529ZM46.1489 39.2044C47.1018 39.2044 47.1018 39.2044 47.1018 39.4767V46.9636C47.1018 47.0997 46.9657 47.2359 46.1489 47.2359H46.0128C45.0598 47.2359 45.0598 47.2359 45.0598 46.9636V39.4767C45.0598 39.2044 45.0598 39.2044 46.1489 39.2044Z" fill="white"/>
<path d="M49.1438 45.4663C49.4161 45.0579 49.5522 44.9218 49.6884 45.0579C50.2329 45.4663 51.0497 45.7386 51.5942 45.7386C52.411 45.7386 52.8194 45.4663 52.8194 45.0579C52.8194 43.8328 49.0077 44.6496 49.0077 41.6548C49.0077 40.0213 50.369 39.0684 52.1387 39.0684C53.0916 39.0684 54.0446 39.3406 54.5891 39.8852C54.7252 40.0213 54.7253 40.1574 54.453 40.5658L54.3168 40.838C54.0446 41.2464 53.9085 41.3825 53.7723 41.2464C53.2278 40.9742 52.8194 40.7019 52.2749 40.7019C51.8665 40.7019 51.4581 40.838 51.3219 40.9742C51.1858 41.1103 51.0497 41.2464 51.0497 41.3825C51.0497 42.4715 54.8614 41.927 54.8614 44.6496C54.8614 45.3302 54.5891 46.0108 54.0446 46.4192C53.5001 46.9637 52.6833 47.2359 51.5942 47.2359C50.369 47.2359 49.4161 46.8276 48.7354 46.2831C48.5993 46.1469 48.5993 46.0108 48.8716 45.6024L49.1438 45.4663Z" fill="white"/>
<path d="M56.3587 45.4663C56.631 45.0579 56.7671 44.9218 56.9032 45.0579C57.4478 45.4663 58.2646 45.7386 58.8091 45.7386C59.6259 45.7386 60.0343 45.4663 60.0343 45.0579C60.0343 43.8328 56.2226 44.6496 56.2226 41.6548C56.2226 40.0213 57.5839 39.0684 59.3536 39.0684C60.3065 39.0684 61.2595 39.3406 61.804 39.8852C61.9401 40.0213 61.9401 40.1574 61.6678 40.5658L61.5317 40.838C61.2595 41.2464 61.1233 41.3825 60.9872 41.2464C60.4427 40.9742 60.0343 40.7019 59.4897 40.7019C59.0814 40.7019 58.673 40.838 58.5368 40.9742C58.4007 41.1103 58.2646 41.2464 58.2646 41.3825C58.2646 42.4715 62.0762 41.927 62.0762 44.6496C62.0762 45.3302 61.804 46.0108 61.2595 46.4192C60.7149 46.9637 59.8981 47.2359 58.8091 47.2359C57.5839 47.2359 56.631 46.8276 55.9503 46.2831C55.8142 46.1469 55.8142 46.0108 56.0865 45.6024L56.3587 45.4663Z" fill="white"/>
<path d="M64.799 35.529C65.4797 35.529 66.0242 36.0735 66.0242 36.7542C66.0242 37.4348 65.4797 37.9793 64.799 37.9793C64.1184 37.9793 63.5739 37.4348 63.5739 36.7542C63.5739 36.0735 64.1184 35.529 64.799 35.529ZM64.9352 39.2044C65.8881 39.2044 65.8881 39.2044 65.8881 39.4767V46.9636C65.8881 47.0997 65.752 47.2359 64.9352 47.2359H64.799C63.8461 47.2359 63.8461 47.2359 63.8461 46.9636V39.4767C63.8461 39.2044 63.8461 39.2044 64.9352 39.2044Z" fill="white"/>
<path d="M75.1451 43.016C75.1451 45.7386 73.7837 47.3721 71.1972 47.3721C68.883 47.3721 67.5216 46.0108 67.5216 43.4244C67.5216 40.7019 68.883 39.0684 71.4695 39.0684C73.6476 39.0684 75.1451 40.4297 75.1451 43.016ZM69.6998 43.1522C69.6998 44.6496 70.2443 45.4663 71.1972 45.4663C72.4224 45.4663 72.9669 44.5134 72.9669 43.016C72.9669 41.5187 72.4224 40.7019 71.4695 40.7019C70.2443 40.838 69.6998 41.6548 69.6998 43.1522Z" fill="white"/>
<path d="M77.7315 39.2042C78.4121 39.2042 78.5483 39.2042 78.6844 39.3403C78.6844 39.4765 78.8205 39.7487 78.8205 39.8848C79.3651 39.3403 80.0457 38.932 80.9987 38.932C81.9516 38.932 82.6323 39.2042 83.0406 39.7487C83.5852 40.2932 83.7213 40.9738 83.7213 42.199V46.8273C83.7213 46.9634 83.5852 47.0995 82.7684 47.0995H82.6322C81.6793 47.0995 81.6793 47.0995 81.6793 46.8273V42.7435C81.6793 41.6545 81.6793 41.3822 81.407 41.11C81.2709 40.8377 80.8625 40.7016 80.4541 40.7016C80.0457 40.7016 79.7735 40.8377 79.5012 40.9739C79.2289 41.11 79.0928 41.3822 79.0928 41.7906C79.0928 42.199 79.0928 42.7435 79.0928 43.288V46.8273C79.0928 46.9634 78.9567 47.0995 78.1399 47.0995H78.0037C77.0508 47.0995 77.0508 47.0995 77.0508 46.8273V42.7435C77.0508 41.5184 77.0508 40.2932 76.9147 39.4765C76.6424 39.2042 76.7786 39.2042 77.7315 39.2042Z" fill="white"/>
</svg>
